<?xml version="1.0" encoding="UTF-8"?>
<svg width="79px" height="43px" viewBox="0 0 79 43" version="1.1" xmlns="http://www.w3.org/2000/svg" xmlns:xlink="http://www.w3.org/1999/xlink">
    <!-- Generator: sketchtool 51.2 (57519) - http://www.bohemiancoding.com/sketch -->
    <title>ECC56B76-C659-4A74-B895-9810737F81FE</title>
    <desc>Created with sketchtool.</desc>
    <defs></defs>
    <g id="Page-1" stroke="none" stroke-width="1" fill="none" fill-rule="evenodd">
        <g id="OSSN_Screen10_Opportunities" transform="translate(-776.000000, -1171.000000)">
            <g id="Group-11" transform="translate(0.000000, 1060.000000)">
                <g id="Group-5" transform="translate(735.000000, 95.000000)">
                    <g id="img/Logo_Fixme" transform="translate(41.000000, 16.000000)">
                        <g id="Group" transform="translate(0.636364, 0.539474)">
                            <path d="M61.6971054,1.1189144 L74.4907679,8.45785324 C76.4926588,9.60621516 77.7272727,11.737761 77.7272727,14.0456393 L77.7272727,28.6517291 C77.7272727,30.9596074 76.4926588,33.0911533 74.4907679,34.2395152 L61.6971054,41.578454 C59.7119099,42.7172388 57.2715612,42.7172388 55.2863657,41.578454 L42.4927031,34.2395152 C40.4908122,33.0911533 39.2561983,30.9596074 39.2561983,28.6517291 L39.2561983,14.0456393 C39.2561983,11.737761 40.4908122,9.60621516 42.4927031,8.45785324 L55.2863657,1.1189144 C57.2715612,-0.0198703709 59.7119099,-0.0198703709 61.6971054,1.1189144 Z" id="Polygon" fill="#1F2B4E"></path>
                            <path d="M30.8335451,21.7508068 L34.4934618,17.4619673 L36.707795,17.4619673 L36.707795,15.1095697 L30.2430562,15.1095697 L30.2430562,17.4619673 L31.4240339,17.4619673 L29.1205704,20.1741103 L26.6109927,17.4619673 L27.8811008,17.4619673 L27.8811008,15.1095697 L20.8230879,15.1095697 L20.8230879,17.4619673 L23.0959129,17.4619673 L27.0538594,21.5147239 L23.3633041,25.8344791 L20.8230879,25.8344791 L20.8230879,28.2177923 L27.6443482,28.2177923 L27.6443482,25.8344791 L26.4048787,25.8344791 L28.7946874,23.1223361 L31.3933954,25.8344791 L30.1232873,25.8344791 L30.1232873,28.2177923 L37.239792,28.2177923 L37.239792,25.8344791 L34.8471981,25.8344791 L30.8335451,21.7508068 Z M15.1660933,17.6952397 C14.6508082,17.6952397 14.2720041,17.5547142 13.971189,17.251179 C13.9043412,17.1837267 13.8458494,17.1106534 13.7957135,17.0319591 C13.7177244,16.9167282 13.6592326,16.7874447 13.6174527,16.6441086 C13.5589609,16.4558044 13.5311077,16.2450161 13.5311077,16.0061227 C13.5311077,15.9780176 13.5311077,15.952723 13.533893,15.9246179 L13.533893,15.9218074 C13.542249,15.6070301 13.6035261,15.3397506 13.7177244,15.1095697 C13.7845722,14.9718547 13.8737026,14.8453817 13.979545,14.7357718 C14.0380368,14.6767511 14.0937433,14.6258808 14.1578058,14.5781021 L14.1605911,14.5755727 C14.4279823,14.3732159 14.7538652,14.280469 15.1660933,14.280469 C15.7008757,14.280469 16.1103184,14.4322366 16.4194895,14.7442033 C16.5253318,14.8538132 16.6144622,14.9746652 16.68131,15.1095697 C16.6868806,15.1177202 16.6924513,15.1264328 16.6952366,15.1320538 C16.8177909,15.3793788 16.8762827,15.6685803 16.8762827,16.0061227 C16.8762827,16.3461945 16.8177909,16.6328666 16.6952366,16.87176 C16.6256035,17.0122856 16.5364731,17.1331375 16.4278454,17.2427475 C16.1158891,17.5462826 15.703661,17.6952397 15.1660933,17.6952397 Z M10.7903481,6.17214528 C10.8293427,6.12155608 10.8711225,6.07096689 10.9156877,6.0231882 C11.2137175,5.7112215 11.5925216,5.56788545 12.1022361,5.56788545 C12.6370184,5.56788545 13.0464612,5.71965303 13.3556322,6.03161974 C13.6620179,6.34358644 13.8124255,6.75645048 13.8124255,7.2935391 C13.8124255,7.82753616 13.6648033,8.23196867 13.3639882,8.53016387 C13.0520318,8.83369904 12.6398038,8.98265611 12.1022361,8.98265611 C11.7958504,8.98265611 11.5368152,8.93206692 11.3139892,8.8252675 C11.1635816,8.75781524 11.029886,8.66225788 10.9073318,8.5385954 C10.6120873,8.24068125 10.4672504,7.83287613 10.4672504,7.2935391 C10.4672504,6.83261532 10.5730928,6.46415735 10.7903481,6.17214528 Z M16.6952366,19.0695795 C17.0266903,18.9206224 17.32472,18.7123636 17.5921112,18.4512671 C18.2271652,17.8273337 18.5474776,17.0066645 18.5474776,16.0061227 C18.5474776,15.0140124 18.2299505,14.1877222 17.6004672,13.5525467 L17.6004672,13.5497362 C16.9709838,12.9173713 16.1520983,12.5941625 15.1660933,12.5941625 C14.2023709,12.5941625 13.3974121,12.9201818 12.7818553,13.5581677 C12.4309044,13.9232531 12.1774398,14.3507318 12.0298176,14.8341397 C9.30577002,15.4271575 7.00787709,16.9898015 5.62635601,19.0948741 L5.63749731,18.02688 L5.63749731,8.8252675 L9.10244131,8.8252675 C9.25284885,9.1625288 9.46174821,9.46325346 9.72635406,9.72997094 C10.3419108,10.3541854 11.141299,10.6689626 12.1022361,10.6689626 C13.0826704,10.6689626 13.8987705,10.3569959 14.5282539,9.73868353 C15.163308,9.11475012 15.4836203,8.29408096 15.4836203,7.2935391 C15.4836203,6.30142878 15.1660933,5.47513859 14.5366099,4.83996314 L14.5366099,4.83715263 C13.9071265,4.20478769 13.088241,3.88157895 12.1022361,3.88157895 C11.1385137,3.88157895 10.3335549,4.2075982 9.71799808,4.84558416 C9.35312054,5.22191156 9.09687066,5.66625333 8.94924845,6.17214528 L0,6.17214528 L0,8.8252675 L2.65719982,8.8252675 L2.62656125,21.0678527 L2.63770255,21.0678527 L2.62656125,25.8201455 L0,25.8201455 L0,28.2177923 L9.30019937,28.2177923 L9.30019937,25.8201455 L5.60964406,25.8201455 L5.60964406,25.7051956 C5.80740212,21.6974071 8.48131389,18.3722918 12.0855241,17.3411153 C12.238717,17.7598814 12.4754696,18.1252479 12.7902113,18.4425545 C13.0631731,18.7182656 13.3695588,18.9343939 13.7121538,19.0892531 L13.7121538,25.8344791 L11.2638533,25.8344791 L11.2638533,28.2177923 L19.1463224,28.2177923 L19.1463224,25.8344791 L16.6952366,25.8344791 L16.6952366,19.0695795 Z" id="Fill-1" fill="#DE4270"></path>
                            <path d="M61.0615321,20.5355956 L61.0615321,24.9520384 L63.0430354,24.9520384 L63.0430354,26.7825093 L57.773688,26.7825093 L57.773688,24.9520384 L58.7303516,24.9520384 L58.7303516,20.7644044 C58.7303516,19.864279 58.5742065,19.2188653 58.2641156,18.830322 C57.9518254,18.4417786 57.4240109,18.2475069 56.678473,18.2475069 C56.2738153,18.2475069 55.8581614,18.3187399 55.4315114,18.4633643 C55.0026622,18.6099315 54.6661805,18.7957848 54.4176679,19.0245936 L54.4176679,24.9520384 L55.3721323,24.9520384 L55.3721323,26.7825093 L51.0836401,26.7825093 L51.0836401,24.9520384 L52.062296,24.9520384 L52.062296,20.7644044 C52.062296,19.849169 51.9105493,19.1994381 51.6092553,18.8195291 C51.305762,18.4374615 50.7801468,18.2475069 50.0346089,18.2475069 C49.6299512,18.2475069 49.2142973,18.3187399 48.7876473,18.4633643 C48.3587981,18.6099315 48.0135195,18.7957848 47.7496122,19.0245936 L47.7496122,24.9520384 L48.7282682,24.9520384 L48.7282682,26.7825093 L43.46112,26.7825093 L43.46112,24.9520384 L45.3964396,24.9520384 L45.3964396,18.9555193 L43.1818182,18.2475069 L43.7866056,16.417036 L47.0282659,17.4680458 C47.4791073,17.1034626 47.9981249,16.8163722 48.5897169,16.6113077 C49.1791097,16.4040846 49.7619048,16.3026316 50.3381022,16.3026316 C51.0374563,16.3026316 51.6620367,16.4084017 52.2140426,16.6218847 C52.7660486,16.8357994 53.2124916,17.1487927 53.555571,17.5610803 C54.0064125,17.1790127 54.5342269,16.8744379 55.1390143,16.6458449 C55.7460009,16.417036 56.3529875,16.3026316 56.9577748,16.3026316 C58.4048661,16.3026316 59.4494988,16.630519 60.0938723,17.2869414 C60.7380258,17.9409894 61.0615321,19.0245936 61.0615321,20.5355956 Z M73.8016529,21.3126823 C73.8016529,21.5717112 73.7708637,21.9451445 73.7092854,22.4351409 L65.783272,22.4567266 C65.8448503,23.4172921 66.1901289,24.1382559 66.8191078,24.6196179 C67.4502859,25.0988214 68.2222145,25.3405817 69.1392921,25.3405817 C70.4456328,25.3405817 71.5870315,24.9520384 72.5656874,24.1727931 L73.4519758,25.5693906 C72.1786235,26.6357262 70.7557238,27.1710526 69.1854758,27.1710526 C67.4456675,27.1710526 66.064773,26.6832149 65.0487302,25.7053808 C64.0304882,24.7297052 63.5202676,23.4108164 63.5202676,21.7484984 C63.5202676,20.68022 63.7423895,19.7345487 64.1866333,18.9101892 C64.6286779,18.0875566 65.2464407,17.4466759 66.0383823,16.9890582 C66.8320832,16.5314404 67.7471815,16.3026316 68.789615,16.3026316 C70.3290738,16.3026316 71.5474454,16.7602493 72.4489085,17.6754848 C73.3508114,18.5907202 73.8016529,19.8038389 73.8016529,21.3126823 Z M65.8294557,20.8097345 L71.4704725,20.8097345 C71.4704725,20.0175378 71.2285575,19.3721241 70.7469269,18.875652 C70.2652962,18.3813385 69.6297197,18.1328866 68.8357988,18.1328866 C68.0440771,18.1328866 67.3642961,18.3834971 66.7971155,18.8883876 C66.229715,19.3915512 65.9062088,20.0326478 65.8294557,20.8097345 Z" id="Combined-Shape" fill="#FAFAFA"></path>
                        </g>
                    </g>
                </g>
            </g>
        </g>
    </g>
</svg>