<?xml version="1.0" encoding="UTF-8"?>
<svg width="84px" height="38px" viewBox="0 0 84 38" version="1.1" xmlns="http://www.w3.org/2000/svg" xmlns:xlink="http://www.w3.org/1999/xlink">
    <!-- Generator: sketchtool 51.2 (57519) - http://www.bohemiancoding.com/sketch -->
    <title>C0803DD6-2D93-4B66-9D2D-A87D7C0C4A14</title>
    <desc>Created with sketchtool.</desc>
    <defs></defs>
    <g id="Page-1" stroke="none" stroke-width="1" fill="none" fill-rule="evenodd">
        <g id="OSSN_Screen10_Opportunities" transform="translate(-1153.000000, -1174.000000)" fill="#262626">
            <g id="Group-11" transform="translate(0.000000, 1060.000000)">
                <g id="Group-5-Copy-2" transform="translate(1115.000000, 95.000000)">
                    <path d="M79,37 L122,37 L122,57 L38,57 L38,19 L79,19 L79,37 Z M46.4875,27.4275 L47.625,27.34 L47.275,23.875 L38.665,23.875 L38.3325,27.34 L39.4525,27.4275 L39.8025,24.995 L42.3225,24.995 L42.3225,34.13 L40.3625,34.13 L40.3625,35.25 L45.6125,35.25 L45.6125,34.13 L43.6,34.13 L43.6,24.995 L46.1375,24.995 L46.4875,27.4275 Z M52.6525,27.2875 C51.3924937,27.2875 50.4358366,27.6929126 49.7825,28.50375 C49.1291634,29.3145874 48.8025,30.2858277 48.8025,31.4175 C48.8025,32.5958392 49.1379133,33.5583296 49.80875,34.305 C50.4795867,35.0516704 51.4041608,35.425 52.5825,35.425 C53.7841727,35.425 54.7349965,35.0400039 55.435,34.27 C56.1350035,33.4999962 56.485,32.5258392 56.485,31.3475 C56.485,30.2391611 56.1641699,29.2854207 55.5225,28.48625 C54.8808301,27.6870793 53.924173,27.2875 52.6525,27.2875 Z M52.6175,34.375 C51.7891625,34.375 51.1591688,34.0833363 50.7275,33.5 C50.2958312,32.9166638 50.08,32.1991709 50.08,31.3475 C50.08,30.4841624 50.2987478,29.7666695 50.73625,29.195 C51.1737522,28.6233305 51.8008293,28.3375 52.6175,28.3375 C53.4341708,28.3375 54.0670811,28.6145806 54.51625,29.16875 C54.9654189,29.7229194 55.19,30.4433289 55.19,31.33 C55.19,32.2050044 54.9683356,32.9312471 54.525,33.50875 C54.0816645,34.0862529 53.4458375,34.375 52.6175,34.375 Z M61.81,27.2875 C60.5499937,27.2875 59.5933366,27.6929126 58.94,28.50375 C58.2866634,29.3145874 57.96,30.2858277 57.96,31.4175 C57.96,32.5958392 58.2954133,33.5583296 58.96625,34.305 C59.6370867,35.0516704 60.5616608,35.425 61.74,35.425 C62.9416727,35.425 63.8924965,35.0400039 64.5925,34.27 C65.2925035,33.4999962 65.6425,32.5258392 65.6425,31.3475 C65.6425,30.2391611 65.3216699,29.2854207 64.68,28.48625 C64.0383301,27.6870793 63.081673,27.2875 61.81,27.2875 Z M61.775,34.375 C60.9466625,34.375 60.3166688,34.0833363 59.885,33.5 C59.4533312,32.9166638 59.2375,32.1991709 59.2375,31.3475 C59.2375,30.4841624 59.4562478,29.7666695 59.89375,29.195 C60.3312522,28.6233305 60.9583293,28.3375 61.775,28.3375 C62.5916708,28.3375 63.2245811,28.6145806 63.67375,29.16875 C64.1229189,29.7229194 64.3475,30.4433289 64.3475,31.33 C64.3475,32.2050044 64.1258356,32.9312471 63.6825,33.50875 C63.2391645,34.0862529 62.6033375,34.375 61.775,34.375 Z M66.82,35.25 L70.775,35.25 L70.775,34.2525 L69.41,34.2525 L69.41,23.21 L66.8025,23.21 L66.8025,24.2075 L68.185,24.2075 L68.185,34.2525 L66.82,34.2525 L66.82,35.25 Z M78.2875,32.9925 C78.2875,32.3741636 78.1241683,31.9162515 77.7975,31.61875 C77.4708317,31.3212485 77.0683357,31.1141673 76.59,30.9975 C76.1116643,30.8808328 75.6333357,30.7845837 75.155,30.70875 C74.6766643,30.6329163 74.2741683,30.5104175 73.9475,30.34125 C73.6208317,30.1720825 73.4575,29.8833354 73.4575,29.475 C73.4575,29.0783314 73.6149984,28.7866676 73.93,28.6 C74.2450016,28.4133324 74.6474976,28.32 75.1375,28.32 C75.7091695,28.32 76.2399976,28.4483321 76.73,28.705 L76.9225,29.965 L77.9375,29.8425 L77.745,28.0225 C77.4183317,27.8241657 77.0187524,27.6550007 76.54625,27.515 C76.0737477,27.3749993 75.5691694,27.305 75.0325,27.305 C74.3208298,27.305 73.6616697,27.474165 73.055,27.8125 C72.4483303,28.150835 72.145,28.7341625 72.145,29.5625 C72.145,30.1691697 72.3083317,30.6154152 72.635,30.90125 C72.9616683,31.1870848 73.3699976,31.3883328 73.86,31.505 C74.3500025,31.6216673 74.8370809,31.7208329 75.32125,31.8025 C75.8054191,31.8841671 76.2108317,32.0124991 76.5375,32.1875 C76.8641683,32.3625009 77.0275,32.6658312 77.0275,33.0975 C77.0275,33.5408356 76.8145855,33.8704156 76.38875,34.08625 C75.9629146,34.3020844 75.4758361,34.41 74.9275,34.41 C74.3091636,34.41 73.7316694,34.281668 73.195,34.025 L73.2475,32.9925 L72.2675,32.8875 L72.0225,34.655 C72.360835,34.8766678 72.8012473,35.0604159 73.34375,35.20625 C73.8862527,35.3520841 74.4316639,35.425 74.98,35.425 C75.913338,35.425 76.6979135,35.2091688 77.33375,34.7775 C77.9695865,34.3458312 78.2875,33.7508371 78.2875,32.9925 Z M49.5325,47.7294438 C49.5325,46.0844356 49.0279217,44.7281992 48.01875,43.6606938 C47.0095783,42.5931885 45.5775093,42.0594438 43.7225,42.0594438 L38.98,42.0594438 L38.98,43.1619438 L40.415,43.1619438 L40.415,52.3319438 L38.98,52.3319438 L38.98,53.4344438 L43.775,53.4344438 C45.5716757,53.4344438 46.9804116,52.9006992 48.00125,51.8331938 C49.0220884,50.7656885 49.5325,49.3977855 49.5325,47.7294438 Z M48.1675,47.7469438 C48.1675,49.1586176 47.7854205,50.2756897 47.02125,51.0981938 C46.2570795,51.9206979 45.1516739,52.3319438 43.705,52.3319438 L41.6925,52.3319438 L41.6925,43.1619438 L43.705,43.1619438 C45.1516739,43.1619438 46.2570795,43.5819396 47.02125,44.4219438 C47.7854205,45.261948 48.1675,46.3702703 48.1675,47.7469438 Z M51.83,46.2419438 L51.55,48.0444438 L52.565,48.1669438 L52.8625,46.8194438 C53.2941688,46.6094428 53.7958305,46.5044438 54.3675,46.5044438 C55.0675035,46.5044438 55.5370821,46.6794421 55.77625,47.0294438 C56.0154179,47.3794456 56.135,47.834441 56.135,48.3944438 L56.135,49.0944438 C55.924999,49.0711104 55.7004179,49.0536106 55.46125,49.0419438 C55.2220821,49.0302771 54.9858345,49.0244438 54.7525,49.0244438 C53.8774956,49.0244438 53.0520872,49.1790256 52.27625,49.4881938 C51.5004128,49.797362 51.1125,50.4419389 51.1125,51.4219438 C51.1125,52.2502813 51.377914,52.8219423 51.90875,53.1369438 C52.439586,53.4519454 52.9616641,53.6094438 53.475,53.6094438 C54.1050032,53.6094438 54.6445811,53.4461121 55.09375,53.1194438 C55.5429189,52.7927755 55.8899988,52.4194459 56.135,51.9994438 L56.135,52.0344438 C56.1583335,53.0844491 56.6308287,53.6094438 57.5525,53.6094438 C57.9141685,53.6094438 58.2524984,53.5219447 58.5675,53.3469438 L58.55,52.5419438 C58.3983326,52.6119442 58.2233343,52.6469438 58.025,52.6469438 C57.5816645,52.6469438 57.36,52.3669466 57.36,51.8069438 L57.36,48.0969438 C57.36,46.3586018 56.4325093,45.4894438 54.5775,45.4894438 C54.0641641,45.4894438 53.5800023,45.5477766 53.125,45.6644438 C52.6699977,45.7811111 52.2383354,45.9736092 51.83,46.2419438 Z M56.135,50.5119438 C56.0883331,51.1536137 55.8287524,51.6611086 55.35625,52.0344438 C54.8837476,52.407779 54.3791694,52.5944438 53.8425,52.5944438 C53.504165,52.5944438 53.1775016,52.5011114 52.8625,52.3144438 C52.5474984,52.1277762 52.39,51.783613 52.39,51.2819438 C52.39,50.6752741 52.6262476,50.2815281 53.09875,50.1006938 C53.5712524,49.9198596 54.0991638,49.8294438 54.6825,49.8294438 C54.939168,49.8294438 55.1899988,49.8411104 55.435,49.8644438 C55.6800012,49.8877773 55.9133322,49.9052771 56.135,49.9169438 L56.135,50.5119438 Z M66.0275,51.1769438 C66.0275,50.5586074 65.8641683,50.1006953 65.5375,49.8031938 C65.2108317,49.5056923 64.8083357,49.2986111 64.33,49.1819438 C63.8516643,49.0652766 63.3733357,48.9690275 62.895,48.8931938 C62.4166643,48.8173601 62.0141683,48.6948613 61.6875,48.5256938 C61.3608317,48.3565263 61.1975,48.0677792 61.1975,47.6594438 C61.1975,47.2627752 61.3549984,46.9711114 61.67,46.7844438 C61.9850016,46.5977762 62.3874976,46.5044438 62.8775,46.5044438 C63.4491695,46.5044438 63.9799976,46.6327759 64.47,46.8894438 L64.6625,48.1494438 L65.6775,48.0269438 L65.485,46.2069438 C65.1583317,46.0086095 64.7587524,45.8394445 64.28625,45.6994438 C63.8137476,45.5594431 63.3091694,45.4894438 62.7725,45.4894438 C62.0608298,45.4894438 61.4016697,45.6586088 60.795,45.9969438 C60.1883303,46.3352789 59.885,46.9186064 59.885,47.7469438 C59.885,48.3536135 60.0483317,48.7998591 60.375,49.0856938 C60.7016683,49.3715286 61.1099976,49.5727766 61.6,49.6894438 C62.0900025,49.8061111 62.5770809,49.9052768 63.06125,49.9869438 C63.5454191,50.0686109 63.9508317,50.196943 64.2775,50.3719438 C64.6041683,50.5469447 64.7675,50.850275 64.7675,51.2819438 C64.7675,51.7252794 64.5545855,52.0548594 64.12875,52.2706938 C63.7029145,52.4865282 63.2158361,52.5944438 62.6675,52.5944438 C62.0491636,52.5944438 61.4716694,52.4661118 60.935,52.2094438 L60.9875,51.1769438 L60.0075,51.0719438 L59.7625,52.8394438 C60.100835,53.0611116 60.5412473,53.2448598 61.08375,53.3906938 C61.6262527,53.5365279 62.1716639,53.6094438 62.72,53.6094438 C63.653338,53.6094438 64.4379135,53.3936127 65.07375,52.9619438 C65.7095865,52.530275 66.0275,51.935281 66.0275,51.1769438 Z M72.56,53.4344438 L76.515,53.4344438 L76.515,52.4369438 L75.1675,52.4369438 L75.1675,48.4469438 C75.1675,47.4086053 74.9108359,46.6561128 74.3975,46.1894438 C73.8841641,45.7227748 73.2483371,45.4894438 72.49,45.4894438 C71.2416604,45.4894438 70.3316695,46.0086053 69.76,47.0469438 L69.76,41.3944438 L67.17,41.3944438 L67.17,42.3919438 L68.5175,42.3919438 L68.5175,52.4369438 L67.17,52.4369438 L67.17,53.4344438 L71.1075,53.4344438 L71.1075,52.4369438 L69.76,52.4369438 L69.76,48.7619438 C69.7833335,48.1902743 70.0079145,47.6740295 70.43375,47.2131938 C70.8595855,46.7523582 71.41083,46.5219438 72.0875,46.5219438 C72.6241694,46.5219438 73.0645816,46.6940254 73.40875,47.0381938 C73.7529184,47.3823622 73.925,47.9744396 73.925,48.8144438 L73.925,52.4369438 L72.56,52.4369438 L72.56,53.4344438 Z M85.515,49.3394438 C85.515,48.102771 85.2000032,47.1519472 84.57,46.4869438 C83.9399969,45.8219405 83.1408382,45.4894438 82.1725,45.4894438 C81.4258296,45.4894438 80.8337522,45.6644421 80.39625,46.0144438 C79.9587478,46.3644456 79.6233345,46.7786081 79.39,47.2569438 L79.39,41.3944438 L76.8175,41.3944438 L76.8175,42.3919438 L78.1475,42.3919438 L78.1475,51.1594438 C78.1475,51.5444458 78.1241669,51.9352752 78.0775,52.3319438 C78.0308331,52.7286125 77.9783336,53.0961088 77.92,53.4344438 L79.145,53.4344438 C79.1566667,53.3877769 79.1858331,53.1719458 79.2325,52.7869438 C79.2791669,52.4019419 79.3025,52.1861107 79.3025,52.1394438 C79.8275026,53.1194487 80.7374935,53.6094438 82.0325,53.6094438 C82.8608375,53.6094438 83.5316641,53.3965293 84.045,52.9706938 C84.5583359,52.5448584 84.9316655,52.0052804 85.165,51.3519438 C85.3983345,50.6986072 85.515,50.0277806 85.515,49.3394438 Z M84.22,49.4619438 C84.22,50.2669479 84.0304186,50.9844407 83.65125,51.6144438 C83.2720815,52.244447 82.6508377,52.5594438 81.7875,52.5594438 C81.11083,52.5594438 80.5420857,52.3319461 80.08125,51.8769438 C79.6204144,51.4219416 79.39,50.8677804 79.39,50.2144438 L79.39,49.0419438 C79.4016667,48.4702743 79.6291645,47.9102799 80.0725,47.3619438 C80.5158356,46.8136078 81.1108296,46.5394438 81.8575,46.5394438 C82.5225033,46.5394438 83.0824977,46.7844414 83.5375,47.2744438 C83.9925023,47.7644463 84.22,48.4936057 84.22,49.4619438 Z M90.8225,45.4719438 C89.5624937,45.4719438 88.6058366,45.8773564 87.9525,46.6881938 C87.2991634,47.4990312 86.9725,48.4702715 86.9725,49.6019438 C86.9725,50.7802831 87.3079133,51.7427734 87.97875,52.4894438 C88.6495867,53.2361142 89.5741608,53.6094438 90.7525,53.6094438 C91.9541727,53.6094438 92.9049965,53.2244477 93.605,52.4544438 C94.3050035,51.68444 94.655,50.7102831 94.655,49.5319438 C94.655,48.423605 94.3341699,47.4698645 93.6925,46.6706938 C93.0508301,45.8715232 92.094173,45.4719438 90.8225,45.4719438 Z M90.7875,52.5594438 C89.9591625,52.5594438 89.3291688,52.2677801 88.8975,51.6844438 C88.4658312,51.1011076 88.25,50.3836148 88.25,49.5319438 C88.25,48.6686062 88.4687478,47.9511134 88.90625,47.3794438 C89.3437522,46.8077743 89.9708293,46.5219438 90.7875,46.5219438 C91.6041708,46.5219438 92.2370811,46.7990244 92.68625,47.3531938 C93.1354189,47.9073633 93.36,48.6277727 93.36,49.5144438 C93.36,50.3894482 93.1383356,51.1156909 92.695,51.6931938 C92.2516645,52.2706967 91.6158375,52.5594438 90.7875,52.5594438 Z M96.9,46.2419438 L96.62,48.0444438 L97.635,48.1669438 L97.9325,46.8194438 C98.3641688,46.6094428 98.8658305,46.5044438 99.4375,46.5044438 C100.137504,46.5044438 100.607082,46.6794421 100.84625,47.0294438 C101.085418,47.3794456 101.205,47.834441 101.205,48.3944438 L101.205,49.0944438 C100.994999,49.0711104 100.770418,49.0536106 100.53125,49.0419438 C100.292082,49.0302771 100.055835,49.0244438 99.8225,49.0244438 C98.9474956,49.0244438 98.1220872,49.1790256 97.34625,49.4881938 C96.5704128,49.797362 96.1825,50.4419389 96.1825,51.4219438 C96.1825,52.2502813 96.447914,52.8219423 96.97875,53.1369438 C97.509586,53.4519454 98.0316641,53.6094438 98.545,53.6094438 C99.1750032,53.6094438 99.7145811,53.4461121 100.16375,53.1194438 C100.612919,52.7927755 100.959999,52.4194459 101.205,51.9994438 L101.205,52.0344438 C101.228333,53.0844491 101.700829,53.6094438 102.6225,53.6094438 C102.984168,53.6094438 103.322498,53.5219447 103.6375,53.3469438 L103.62,52.5419438 C103.468333,52.6119442 103.293334,52.6469438 103.095,52.6469438 C102.651664,52.6469438 102.43,52.3669466 102.43,51.8069438 L102.43,48.0969438 C102.43,46.3586018 101.502509,45.4894438 99.6475,45.4894438 C99.1341641,45.4894438 98.6500023,45.5477766 98.195,45.6644438 C97.7399977,45.7811111 97.3083354,45.9736092 96.9,46.2419438 Z M101.205,50.5119438 C101.158333,51.1536137 100.898752,51.6611086 100.42625,52.0344438 C99.9537477,52.407779 99.4491694,52.5944438 98.9125,52.5944438 C98.574165,52.5944438 98.2475016,52.5011114 97.9325,52.3144438 C97.6174984,52.1277762 97.46,51.783613 97.46,51.2819438 C97.46,50.6752741 97.6962477,50.2815281 98.16875,50.1006938 C98.6412524,49.9198596 99.1691638,49.8294438 99.7525,49.8294438 C100.009168,49.8294438 100.259999,49.8411104 100.505,49.8644438 C100.750001,49.8877773 100.983332,49.9052771 101.205,49.9169438 L101.205,50.5119438 Z M109.085,45.5069438 C108.641664,45.5069438 108.247918,45.6556923 107.90375,45.9531938 C107.559582,46.2506953 107.311667,46.615275 107.16,47.0469438 L107.16,45.6469438 L104.605,45.6469438 L104.605,46.6444438 L106.005,46.6444438 L106.005,52.4369438 L104.64,52.4369438 L104.64,53.4344438 L109.0325,53.4344438 L109.0325,52.4369438 L107.23,52.4369438 L107.23,48.6044438 C107.23,47.9977741 107.381665,47.5048624 107.685,47.1256938 C107.988335,46.7465253 108.367498,46.5569438 108.8225,46.5569438 C109.020834,46.5569438 109.219166,46.5919435 109.4175,46.6619438 L109.715,47.9919438 L110.7125,47.8694438 L110.415,45.9094438 C110.088332,45.6411092 109.645003,45.5069438 109.085,45.5069438 Z M118.435,53.4344438 L121.0075,53.4344438 L121.0075,52.4369438 L119.66,52.4369438 L119.66,41.3944438 L116.545,41.3944438 L116.545,42.3919438 L118.435,42.3919438 L118.435,46.9069438 C117.909997,45.9619391 117.040839,45.4894438 115.8275,45.4894438 C114.555827,45.4894438 113.651669,45.938606 113.115,46.8369438 C112.578331,47.7352817 112.31,48.7036053 112.31,49.7419438 C112.31,50.9552832 112.616247,51.9031904 113.22875,52.5856938 C113.841253,53.2681972 114.649162,53.6094438 115.6525,53.6094438 C116.36417,53.6094438 116.941664,53.4344456 117.385,53.0844438 C117.828336,52.7344421 118.178332,52.3261128 118.435,51.8594438 L118.435,53.4344438 Z M118.435,48.7444438 L118.435,49.9869438 C118.411667,50.5702801 118.169586,51.1448577 117.70875,51.7106938 C117.247914,52.27653 116.667504,52.5594438 115.9675,52.5594438 C115.29083,52.5594438 114.727919,52.3144463 114.27875,51.8244438 C113.829581,51.3344414 113.605,50.6111153 113.605,49.6544438 C113.605,48.8377731 113.806248,48.114447 114.20875,47.4844438 C114.611252,46.8544407 115.244162,46.5394438 116.1075,46.5394438 C116.725836,46.5394438 117.262498,46.7436085 117.7175,47.1519438 C118.172502,47.5602792 118.411667,48.0911072 118.435,48.7444438 Z" id="Tools-Dashboard"></path>
                </g>
            </g>
        </g>
    </g>
</svg>