<?xml version="1.0" encoding="UTF-8"?>
<svg width="64px" height="52px" viewBox="0 0 64 52" version="1.1" xmlns="http://www.w3.org/2000/svg" xmlns:xlink="http://www.w3.org/1999/xlink">
    <!-- Generator: sketchtool 51.2 (57519) - http://www.bohemiancoding.com/sketch -->
    <title>F3DF9642-4D5D-4BC3-BE8F-36111F3888F8</title>
    <desc>Created with sketchtool.</desc>
    <defs></defs>
    <g id="Page-1" stroke="none" stroke-width="1" fill="none" fill-rule="evenodd">
        <g id="OSSN_Screen10_Opportunities" transform="translate(-572.000000, -1167.000000)" fill="#1DA1F2" fill-rule="nonzero">
            <g id="Group-11" transform="translate(0.000000, 1060.000000)">
                <g id="Twitter" transform="translate(572.000000, 107.000000)">
                    <g id="icons/Icon_Twitter">
                        <path d="M20.12672,51.8158118 C44.27776,51.8158118 57.48736,31.9539765 57.48736,14.7298824 C57.48736,14.1657412 57.48736,13.6041412 57.44896,13.0450824 C60.0187683,11.1999617 62.23707,8.91536411 64,6.29825882 C61.6035304,7.35234333 59.0613229,8.04361162 56.45824,8.34898824 C59.1993446,6.72004852 61.2508762,4.15800881 62.23104,1.13967059 C59.6535232,2.65790998 56.833654,3.72788937 53.89312,4.30343529 C49.8229319,0.00730781442 43.3554416,-1.04418449 38.1172461,1.73857488 C32.8790507,4.52133424 30.172864,10.4462866 31.51616,16.1910588 C20.9584531,15.6656694 11.121858,10.715645 4.4544,2.57289412 C0.969274256,8.52850895 2.74940898,16.1475017 8.51968,19.9723294 C6.43005748,19.9108521 4.38599519,19.3512994 2.56,18.3408941 C2.56,18.3942588 2.56,18.4501647 2.56,18.5060706 C2.56171042,24.7105892 6.96768381,30.0545364 13.0944,31.2831059 C11.1612662,31.8064359 9.1330063,31.8829361 7.16544,31.5067294 C8.8856267,36.8163215 13.8152309,40.4536625 19.43296,40.5584 C14.7833217,44.1857565 9.03951235,46.1549034 3.12576,46.1489882 C2.08103314,46.1469973 1.03732241,46.0842073 0,45.9609412 C6.00482803,49.7861145 12.9917783,51.8150924 20.12672,51.8056471" id="Shape"></path>
                    </g>
                </g>
            </g>
        </g>
    </g>
</svg>