<?xml version="1.0" encoding="UTF-8"?>
<svg width="45px" height="46px" viewBox="0 0 45 46" version="1.1" xmlns="http://www.w3.org/2000/svg" xmlns:xlink="http://www.w3.org/1999/xlink">
    <!-- Generator: sketchtool 51.2 (57519) - http://www.bohemiancoding.com/sketch -->
    <title>E65A86E6-D86A-478B-B7EE-C15BB112707C</title>
    <desc>Created with sketchtool.</desc>
    <defs></defs>
    <g id="Page-1" stroke="none" stroke-width="1" fill="none" fill-rule="evenodd">
        <g id="OSSN_Screen10_Opportunities" transform="translate(-412.000000, -1170.000000)" fill-rule="nonzero">
            <g id="Group-11" transform="translate(0.000000, 1060.000000)">
                <g id="Email" transform="translate(408.000000, 110.000000)">
                    <g id="icons/Icon_Email" transform="translate(4.000000, 0.000000)">
                        <g id="Group" transform="translate(0.000000, 6.010050)" fill="#F5A209">
                            <polygon id="Shape" points="44.9260385 13.3561809 0.0741923077 13.3561809 22.5001154 0.0967386935"></polygon>
                            <polygon id="Shape" points="0.0739615385 13.3561809 44.9258077 13.3561809 44.9258077 39.8755276 0.0739615385 39.8755276"></polygon>
                        </g>
                        <polygon id="Shape" fill="#FFFFFF" points="40.3178077 0.0733919598 40.3178077 45.8859246 4.68207692 45.8859246 4.68207692 0.0736231156"></polygon>
                        <path d="M10.0550769,9.89820603 L34.9436538,9.89820603 L34.9436538,10.4603769 L10.0550769,10.4603769 L10.0550769,9.89820603 Z M10.0550769,3.84215578 L34.9436538,3.84215578 L34.9436538,4.40432663 L10.0550769,4.40432663 L10.0550769,3.84215578 Z M10.0553077,15.9542563 L34.9438846,15.9542563 L34.9438846,16.5168894 L10.0553077,16.5168894 L10.0553077,15.9542563 Z M10.0553077,16.9973467 L34.9438846,16.9973467 L34.9438846,17.5597487 L10.0553077,17.5597487 L10.0553077,16.9973467 Z M10.0553077,18.0403216 L34.9438846,18.0403216 L34.9438846,18.6024925 L10.0553077,18.6024925 L10.0553077,18.0403216 Z M10.0553077,19.0834121 L34.9451538,19.0834121 L34.9451538,19.6455829 L10.0553077,19.6455829 L10.0553077,19.0834121 Z M10.0550769,10.938407 L34.9436538,10.938407 L34.9436538,11.500809 L10.0550769,11.500809 L10.0550769,10.938407 Z M10.0550769,4.88235678 L34.9436538,4.88235678 L34.9436538,5.44475879 L10.0550769,5.44475879 L10.0550769,4.88235678 Z M10.0550769,11.978608 L34.9436538,11.978608 L34.9436538,12.5410101 L10.0550769,12.5410101 L10.0550769,11.978608 Z M10.0550769,5.92255779 L34.9436538,5.92255779 L34.9436538,6.4849598 L10.0550769,6.4849598 L10.0550769,5.92255779 Z M10.0550769,13.018809 L34.9449231,13.018809 L34.9449231,13.5809799 L10.0550769,13.5809799 L10.0550769,13.018809 Z M10.0550769,6.96275879 L34.9449231,6.96275879 L34.9449231,7.52492965 L10.0550769,7.52492965 L10.0550769,6.96275879 Z M10.0550769,14.0590101 L29.1195,14.0590101 L29.1195,14.6211809 L10.0550769,14.6211809 L10.0550769,14.0590101 Z M10.0550769,8.0029598 L29.1195,8.0029598 L29.1195,8.56513065 L10.0550769,8.56513065 L10.0550769,8.0029598 Z M10.0550769,20.1266181 L29.1195,20.1266181 L29.1195,20.6890201 L10.0550769,20.6890201 L10.0550769,20.1266181 Z" id="Shape" fill="#ECF0F1"></path>
                        <polygon id="Shape" fill="#B3B3B3" points="18.1400769 40.3621106 26.5848462 40.3621106 26.5848462 41.1884925 18.1400769 41.1884925"></polygon>
                        <g id="Group" transform="translate(0.000000, 19.301508)" fill="#FBB429">
                            <polygon id="Shape" points="0.0739615385 0.0647236181 22.4998846 13.3241658 0.0739615385 26.5840704"></polygon>
                            <polygon id="Shape" points="44.9260385 0.0647236181 22.5001154 13.3241658 44.9260385 26.5840704"></polygon>
                        </g>
                        <polygon id="Shape" fill="#F5A209" points="22.4998846 32.6256734 0.0739615385 45.8855779 44.9258077 45.8855779"></polygon>
                    </g>
                </g>
            </g>
        </g>
    </g>
</svg>