<svg width="64" height="64" viewBox="0 0 64 64" version="1.1"
     xmlns="http://www.w3.org/2000/svg">
  <title>
    Slack Icon
  </title>
    <g stroke="none" stroke-width="1" fill="none" fill-rule="evenodd">
        <g transform="translate(-227.000000, -1161.000000)" fill-rule="nonzero">
            <g transform="translate(0.000000, 1060.000000)">
                <g transform="translate(227.000000, 101.000000)">
                    <path d="M41.26 4.21C40.27 1.25 37.1-0.36 34.13 0.57 31.17 1.56 29.55 4.73 30.49 7.7L45.11 52.66C46.1 55.41 49.12 56.98 51.98 56.14 55 55.26 56.82 52.08 55.83 49.17 55.83 49.07 41.26 4.21 41.26 4.21Z"
                      fill="#ECB32D"/>
                    <path d="M18.63 11.55C17.64 8.59 14.47 6.97 11.5 7.91 8.53 8.9 6.92 12.07 7.86 15.04L22.48 59.99C23.47 62.75 26.48 64.31 29.35 63.48 32.36 62.6 34.19 59.42 33.2 56.51 33.2 56.4 18.63 11.55 18.63 11.55Z"
                      fill="#63C1A0"/>
                    <path d="M59.68 41.42C62.65 40.43 64.26 37.26 63.32 34.29 62.33 31.32 59.16 29.71 56.2 30.65L11.19 45.32C8.43 46.31 6.87 49.33 7.7 52.19 8.59 55.21 11.76 57.03 14.67 56.04 14.78 56.04 59.68 41.42 59.68 41.42Z"
                      fill="#E01A59"/>
                    <path d="M20.55 54.17C23.47 53.23 27.27 51.98 31.32 50.68 30.39 47.77 29.14 43.97 27.84 39.91L17.07 43.4 20.55 54.17Z"
                      fill="#331433"/>
                    <path d="M43.24 46.78C47.3 45.48 51.1 44.23 54.01 43.29 53.07 40.38 51.82 36.58 50.52 32.52L39.75 36.01 43.24 46.78Z"
                      fill="#D62027"/>
                    <path d="M52.29 18.78C55.26 17.8 56.87 14.62 55.93 11.66 54.95 8.69 51.77 7.08 48.81 8.01L3.85 22.63C1.09 23.62-0.47 26.64 0.36 29.5 1.25 32.52 4.42 34.34 7.34 33.35 7.44 33.35 52.29 18.78 52.29 18.78Z"
                      fill="#89D3DF"/>
                    <path d="M13.22 31.48C16.13 30.54 19.93 29.29 23.99 27.99 22.69 23.93 21.44 20.14 20.5 17.22L9.73 20.71 13.22 31.48Z"
                      fill="#258B74"/>
                    <path d="M35.85 24.14C39.91 22.84 43.71 21.59 46.62 20.66 45.32 16.6 44.07 12.8 43.13 9.89L32.36 13.37 35.85 24.14Z"
                      fill="#819C3C"/>
                </g>
            </g>
        </g>
    </g>
</svg>
