<?xml version="1.0" standalone="no"?>
<!DOCTYPE svg PUBLIC "-//W3C//DTD SVG 20010904//EN"
 "http://www.w3.org/TR/2001/REC-SVG-20010904/DTD/svg10.dtd">
<svg version="1.0" xmlns="http://www.w3.org/2000/svg"
 width="180.000000pt" height="180.000000pt" viewBox="0 0 180.000000 180.000000"
 preserveAspectRatio="xMidYMid meet">
<metadata>
Created by potrace 1.11, written by Peter Selinger 2001-2013
</metadata>
<g transform="translate(0.000000,180.000000) scale(0.100000,-0.100000)"
fill="#000000" stroke="none">
<path d="M0 900 l0 -900 900 0 900 0 0 900 0 900 -900 0 -900 0 0 -900z m849
384 c57 -17 123 -69 148 -118 15 -29 17 -30 27 -11 6 11 31 41 56 66 120 124
343 96 425 -52 l30 -54 5 -225 5 -225 48 -3 47 -3 0 -80 0 -79 -159 0 -160 0
-3 268 c-3 232 -5 271 -21 299 -50 92 -200 82 -250 -17 -15 -30 -17 -59 -15
-210 l3 -175 48 -3 47 -3 0 -80 0 -79 -159 0 -159 0 -4 263 c-3 286 -6 300
-65 347 -23 18 -38 21 -85 18 -63 -5 -96 -26 -126 -83 -21 -40 -31 -347 -12
-370 9 -11 32 -15 79 -15 l66 0 -3 -80 -4 -80 -234 0 -234 0 0 80 0 80 49 0
c35 0 51 4 55 16 8 20 8 408 0 428 -4 12 -20 16 -55 16 l-49 0 0 80 0 80 160
0 160 0 0 -50 c0 -55 11 -63 36 -25 19 30 91 74 137 85 53 13 110 11 166 -6z"/>
</g>
</svg>
