<?xml version="1.0" encoding="UTF-8"?>
<svg width="245px" height="72px" viewBox="0 0 245 72" version="1.1" xmlns="http://www.w3.org/2000/svg" xmlns:xlink="http://www.w3.org/1999/xlink">
    <title>Redhat</title>
    <g id="Page-1" stroke="none" stroke-width="1" fill="none" fill-rule="evenodd">
        <g id="OSSN_Screen03_Affiliations" transform="translate(-598.000000, -1226.000000)">
            <g id="Logos/Logo_Redhat" transform="translate(598.000000, 1226.000000)">
                <g id="Logo_Redhat">
                    <path d="M47.2729902,8.34636872 C45.9310948,8.33510615 44.4518873,8.53944134 42.8085458,8.96058101 C40.5535049,9.53859218 39.5042484,9.63915084 37.364902,9.48388827 C28.645384,8.84916201 28.9972712,8.84594413 27.5568954,9.58444693 C25.7193954,10.525676 25.1425245,11.6330279 24.0039951,16.3608939 C22.7717892,21.4801341 22.7465686,23.0528715 23.8630801,24.3854749 C25.0032108,25.7458324 28.6670016,27.4336089 32.3199837,28.277095 C36.6907516,29.2875084 39.666781,30.1752402 40.4970588,30.7206704 C40.8925817,30.9829274 41.3869853,31.6631061 41.5979575,32.2290503 C42.5143056,34.6943464 43.0115114,35.6934972 43.5699673,36.2011173 C43.896634,36.4995754 44.1704575,36.9191061 44.1704575,37.1375196 C44.1704575,39.4692737 27.6257516,34.2965363 23.3626716,30.6309721 C21.5159641,29.0425475 20.9907353,27.8748603 21.2205229,25.9252291 L21.4018709,24.3351955 L17.1672141,24.4763799 C13.5922958,24.5942346 12.699567,24.7277765 11.4125163,25.3516425 C6.99170752,27.4931397 7.20748366,31.0818771 12.0238154,35.679419 C19.0623611,42.3979441 33.4929412,48.9402905 44.9506944,50.6216313 C48.8883088,51.2000447 54.5805556,51.2157318 58.2615605,50.6513966 C65.395384,49.5609385 70.3294118,46.635486 72.3934967,42.2752626 C74.1605392,38.540514 73.3927124,35.1058324 70.2509477,32.7129385 C68.7437173,31.5625475 64.8965768,29.8860335 63.7660539,29.8860335 C63.455,29.8860335 62.9105556,30.4692737 62.494616,31.254838 C61.8645016,32.4442458 60.0958578,34.0704804 59.4329167,34.0704804 C59.3092157,34.0704804 59.6422876,33.2487151 60.1727206,32.249162 C60.741585,31.1792179 61.1435131,29.9491844 61.1435131,29.2529162 C61.1435131,26.1372067 57.7955801,17.0302123 55.1089869,12.8212291 C53.8643709,10.8744134 53.2498693,10.2316425 51.8563317,9.4726257 C50.5004248,8.73412291 48.9979984,8.36205587 47.2729902,8.34636872 Z M47.2417647,10.3072626 C47.5199918,10.3088715 47.7922141,10.316514 48.0328105,10.3386369 C50.042451,10.5208492 51.6673775,11.2324022 51.9860376,12.0670391 C52.5240768,13.4748603 49.5312337,14.7676425 46.3314216,14.5005587 C44.8662255,14.3798883 44.7773529,13.986905 46.1312582,13.5955307 C47.3714706,13.2391508 48.0612337,12.3055642 47.3918873,11.8860335 C46.6801062,11.4399553 44.2329085,11.1539665 43.1492239,11.3945028 C42.5002941,11.5372961 42.2328758,11.4934525 42.3689869,11.2734302 C42.6644281,10.7927598 45.2961765,10.3056536 47.2417647,10.3072626 Z M27.9464134,15.1151732 C28.238652,15.0898324 28.5529085,15.2076872 28.8471487,15.4968939 C30.2623039,16.8842011 30.7547059,17.0117095 33.9212908,16.8041564 C37.2271895,16.585743 39.1523611,16.9517765 39.5058497,17.8805363 C39.8277124,18.7224134 39.2632516,18.9850726 36.4329412,19.2976089 C33.3852533,19.635486 31.8948366,20.0534078 31.3395833,20.7259441 C30.687451,21.5163352 29.974469,21.2460335 28.3371324,19.5695196 C27.1801879,18.3833296 26.7654493,17.7027486 26.7654493,17.0145251 C26.7654493,15.9099888 27.3034886,15.1686704 27.9464134,15.1151732 Z" id="Fill-4" stroke="#CA0000" stroke-width="1.6" fill="#CA0000"></path>
                    <path d="M50.5708824,71.5675978 C50.5708824,71.4151508 53.0885376,67.6554637 55.9973121,63.4665922 C57.0357598,61.9706816 57.4000572,61.114324 57.5033415,59.9265251 C57.5782026,59.0653408 57.9473039,57.312 58.3240114,56.029676 C58.7011193,54.7477542 58.9341095,53.6243128 58.8432353,53.5330056 C58.7527614,53.4404916 58.0597958,53.5848939 57.3059804,53.8519777 C55.6562337,54.4368268 54.5649428,54.4617654 52.6930147,53.9589721 C51.5012418,53.6383911 51.0572794,53.6665475 49.8422876,54.131933 C48.4911846,54.6504134 48.3206454,54.6520223 47.0604167,54.1444022 C45.7997876,53.6367821 45.5231618,53.6383911 42.5127042,54.1709497 C36.8849101,55.164067 35.0662255,54.6077765 31.3115605,50.741095 C28.9844608,48.3482011 28.1165523,47.8232849 27.6725899,48.5461006 C27.5633007,48.723486 27.1377533,48.8682905 26.7266176,48.8682905 C26.1777696,48.8682905 25.7005801,48.4362905 24.9467647,47.2545251 C24.3807026,46.3684022 23.5127941,45.3535642 23.0187908,45 C20.3181863,43.0672626 17.2640931,44.468648 17.2640931,47.6410726 C17.2640931,48.9467263 19.8662173,52.8890279 21.1796895,53.5708156 C22.9139052,54.4726257 21.9367075,55.8225251 19.7581291,55.5284916 C18.6308088,55.3760447 18.1320016,55.0369609 16.618366,53.3950391 C14.9998448,51.6368715 14.6947958,51.4433966 13.559469,51.4498324 C12.8669036,51.4530503 11.7079575,51.7261676 10.9853676,52.0564022 C9.12625,52.9047151 6.69746732,53.3729162 4.15979575,53.3729162 L1.97521242,53.3729162 L1.47640523,51.5218324 C0.339477124,47.3156648 0.140915033,45.6721341 0.142116013,40.5014078 C0.142116013,36.5450279 0.293839869,34.4944358 0.733398693,32.4567151 C3.11494281,21.442324 9.17629085,12.5368492 18.3729984,6.54073743 C22.884281,3.59959777 27.0268627,1.87280447 32.3155801,0.730458101 C36.0950654,-0.0864804469 44.5551716,-0.108603352 48.2301716,0.686614525 C60.7447876,3.39687151 71.1080474,11.3269274 76.5044526,22.3208045 C79.525719,28.4766034 80.6750572,33.4860335 80.6750572,40.5014078 C80.6750572,47.3583017 79.5401307,52.4284693 76.6765931,58.3598212 C74.5984967,62.6665475 74.8863317,62.4453184 71.8586601,62.0619888 C69.1188235,61.716067 65.5286928,62.0084916 63.2236111,62.7671061 C62.1943709,63.1065922 61.9145425,63.3704581 61.7832353,64.1343017 C61.6439216,64.9435978 61.3436765,65.1869497 59.7035376,65.8248939 C58.3228105,66.3622793 57.2046977,67.1446257 55.7002696,68.6232402 C54.5525327,69.7531173 53.3247304,70.8182346 52.9728431,70.9911955 C52.145768,71.3950391 50.5708824,71.7735419 50.5708824,71.5675978 Z M58.2567565,50.6513966 C65.3925817,49.5597318 70.3310131,46.6322682 72.395098,42.2704358 C74.1621405,38.5356872 73.3927124,35.1026145 70.252549,32.7081117 C68.7453186,31.5597318 64.8937745,29.8816089 63.7628513,29.8816089 C63.4517974,29.8816089 62.9105556,30.4660559 62.4962173,31.2500112 C61.8661029,32.439419 60.0990605,34.0656536 59.434518,34.0656536 C59.3124183,34.0656536 59.6454902,33.2487151 60.1755229,32.2507709 C60.7431863,31.1792179 61.1391095,29.9507933 61.1391095,29.2545251 C61.1391095,26.1388156 57.7971814,17.0273966 55.1089869,12.8196201 C53.8659722,10.8711955 53.2466667,10.2364693 51.8531291,9.47745251 C49.4435621,8.16375419 46.5644118,8.00044693 42.8085458,8.96379888 C40.5535049,9.54020112 39.507451,9.64075978 37.3665033,9.48549721 C28.6485866,8.85197765 28.9972712,8.84755307 27.5568954,9.5876648 C25.7193954,10.5284916 25.1409232,11.6302123 24.0039951,16.3580782 C22.7717892,21.4753073 22.7437663,23.0560894 23.8602778,24.3898994 C24.9984069,25.7506592 28.662598,27.4352179 32.3155801,28.2787039 C36.6879493,29.2891173 39.6683824,30.180067 40.4970588,30.7267039 C40.894183,30.9877542 41.3901879,31.6647151 41.6011601,32.2306592 C42.5175082,34.6955531 43.0115114,35.6902793 43.5699673,36.1978994 C43.896634,36.4963575 44.1656536,36.9174972 44.1656536,37.1343017 C44.1656536,39.4676648 27.6289542,34.2933184 23.3658742,30.6261453 C21.5191667,29.0393296 20.989134,27.8764693 21.2189216,25.926838 L21.4050735,24.3380112 L17.173219,24.4779888 C13.5970997,24.5958436 12.7039706,24.7309944 11.4173203,25.3548603 C6.99651144,27.4979665 7.20588235,31.0770503 12.0222141,35.6745922 C19.0623611,42.3931173 33.4897386,48.9435084 44.9458905,50.6248492 C48.8851062,51.2028603 54.5757516,51.2141229 58.2567565,50.6513966 Z M28.3387337,19.5646927 C27.1829902,18.3785028 26.763848,17.7027486 26.763848,17.0145251 C26.763848,15.4071955 27.910384,14.5729609 28.849951,15.4952849 C30.2639052,16.8825922 30.7595098,17.0117095 33.9260948,16.8025475 C37.2319935,16.5841341 39.1491585,16.9566034 39.5042484,17.8849609 C39.8261111,18.7272402 39.260049,18.9882905 36.4313399,19.3024358 C33.383652,19.6387039 31.8964379,20.0566257 31.3411846,20.7275531 C30.6890523,21.5179441 29.9760703,21.2412067 28.3387337,19.5646927 Z M46.327018,14.497743 C44.8630229,14.3750615 44.7785539,13.9852961 46.1344608,13.5955307 C47.3746732,13.2375419 48.0644363,12.3011397 47.3950899,11.8816089 C46.6833088,11.4351285 44.2329085,11.1523575 43.1492239,11.3912849 C42.5002941,11.5340782 42.2344771,11.4950615 42.3689869,11.2750391 C42.7084641,10.7251844 46.101634,10.165676 48.0300082,10.3402458 C50.0392484,10.524067 51.6673775,11.2356201 51.9860376,12.0714637 C52.5240768,13.4792849 49.5264297,14.7632179 46.327018,14.497743 Z M45.1992974,61.7381899 C44.6224265,61.3846257 43.7889461,61.095419 43.3477859,61.095419 C42.4098203,61.095419 41.9998856,60.3303687 42.567549,59.6437542 C43.0647549,59.0420112 44.7161029,59.0436201 45.7669608,59.6469721 C46.8898775,60.2925587 47.8126307,60.2374525 48.4895833,59.4864804 C49.2698203,58.6208715 49.6092974,58.6775866 49.6092974,59.6719106 C49.6092974,60.7169162 47.9983824,62.3837765 46.9931618,62.3821676 C46.5832271,62.3809609 45.7749673,62.0917542 45.1992974,61.7381899 Z" id="Fill-2" fill="#000000"></path>
                    <path d="M160.924967,63.0281564 C163.289698,62.5253631 164.837761,61.6657877 166.471895,59.9514637 L167.874641,58.4825028 L167.822998,62.8318659 L174.3175,62.8930056 L174.151364,24.0379441 L167.186479,22.2089832 L166.945482,37.374838 L165.652426,36.262257 C164.8846,35.6021899 163.607157,34.9376983 162.50906,34.6279777 C156.189902,32.8480894 150.105335,36.2654749 147.68616,42.9558436 C146.724575,45.6142123 146.640106,51.755933 147.529632,54.3801117 C149.059281,58.8943911 152.297925,62.0933631 156.296389,63.0406257 C157.999379,63.4444693 158.987786,63.4412514 160.924967,63.0281564 Z M158.779616,57.2050056 C157.147083,56.6237765 156.221127,55.7831061 155.253137,54.0016089 C154.465294,52.5495419 154.302361,51.8408045 154.193072,49.3441341 C154.039747,45.9050279 154.555768,43.9236201 156.088219,42.0536313 C159.01741,38.4837989 164.23567,39.0400894 166.320172,43.1440894 C167.208497,44.8962235 167.224109,51.9618771 166.343791,53.9103017 C165.039526,56.7951285 161.705605,58.2467933 158.779616,57.2050056 Z M216.970719,63.0281564 C219.232165,62.547486 220.833472,61.697162 222.35031,60.173095 L223.604534,58.9128939 L224.036087,62.7469944 L226.356781,62.7469944 L226.273913,53.1734078 C226.189444,43.4598436 225.950049,40.986905 224.903995,38.9334972 C224.154984,37.465743 222.478415,35.8676648 221.071266,35.2816089 C218.27018,34.1127151 213.919828,34.3625028 210.581103,35.8805363 C208.800049,36.6910391 208.723587,36.8153296 209.208382,38.0960447 L209.516234,38.9097654 L211.352132,38.0642682 C213.77451,36.9504804 217.270964,36.6866145 219.297819,37.4641341 C221.891936,38.4604693 223.305891,40.8203799 223.310294,44.1625475 L223.311895,45.6910391 L221.258619,45.6910391 C216.654861,45.6910391 211.449011,47.3631285 209.286446,49.536 C207.541422,51.2893408 206.862467,52.9501676 206.848456,55.5067709 C206.823636,59.6248492 208.975392,62.2128268 213.22406,63.1709497 C214.370196,63.4287821 215.24451,63.3957989 216.970719,63.0281564 Z M212.432614,60.2422793 C210.679984,59.2664581 210.068284,58.1932961 209.918162,55.8209162 C209.758832,53.2880447 210.162361,52.1883352 211.799297,50.701676 C213.378987,49.2689162 216.367426,48.3401564 220.286225,48.0622123 L223.311895,47.8486257 L223.311895,51.531486 C223.311895,55.1121788 223.283873,55.2597989 222.272247,56.9568268 C220.789436,59.439419 218.902296,60.5487821 215.862214,60.7245587 C214.001095,60.833162 213.325743,60.7374302 212.432614,60.2422793 Z M242.539992,63.0659665 C243.475155,62.8881788 244.288619,62.6934972 244.347868,62.6335642 C244.405915,62.5756425 244.36348,62.077676 244.254191,61.5262123 L244.055629,60.5250503 L242.07281,60.7104804 C239.650433,60.9385475 238.368186,60.380648 237.606364,58.7701006 C237.155997,57.8164022 237.084338,56.2372291 237.084338,47.4934525 L237.084338,37.3245587 L244.770212,37.3245587 L244.770212,35.0728492 L237.084338,35.0728492 L237.084338,32.177162 C237.084338,30.5839106 236.991863,29.2798659 236.880972,29.2798659 C236.76848,29.2798659 236.120752,29.448 235.438995,29.6535419 L234.200384,30.0260112 L234.200384,35.0446927 L231.88009,35.1388156 L229.557794,35.2329385 L229.457712,36.2795531 L229.356029,37.3245587 L234.169158,37.3245587 L234.264837,48.0244022 C234.356912,58.2500112 234.39134,58.7809609 235.048276,60.0113966 C235.953415,61.7084246 236.740057,62.3853855 238.418227,62.9119106 C240.14924,63.4541229 240.441479,63.4649832 242.539992,63.0659665 Z M140.391005,62.1545028 L142.500727,61.4662793 L142.017533,59.1301006 C141.750114,57.8445587 141.495106,56.7432402 141.449869,56.6804916 C141.404632,56.6189497 140.449052,56.7999553 139.324534,57.0827263 C138.129959,57.3844022 135.948578,57.5979888 134.07665,57.5979888 C131.215114,57.5979888 130.684681,57.5038659 129.135016,56.7134749 C127.114567,55.6841564 125.669788,53.8270391 125.417982,51.9401564 L125.249044,50.6799553 L143.726528,50.6799553 L143.698505,46.9781899 C143.676487,43.9469497 143.543578,42.965095 142.965106,41.5415866 C140.83857,36.3141453 136.919771,33.8504581 131.266356,34.1851173 C125.677794,34.5165587 121.633693,37.4753966 119.564804,42.7498994 C117.622418,47.7038212 118.37183,54.5574972 121.258186,58.2234637 C122.689355,60.0379441 125.069297,61.6754413 127.383587,62.4340559 C130.099804,63.3250056 137.276062,63.1693408 140.391005,62.1545028 Z M125.314698,45.1287151 C125.321103,44.0949721 126.809918,41.3312179 127.819943,40.4764693 C130.797574,37.9608939 134.789632,38.7400223 136.535057,42.1795307 C136.880539,42.8581006 137.161969,43.926838 137.161969,44.5519106 L137.161969,45.6910391 L131.236732,45.6910391 C125.805899,45.6910391 125.311495,45.6439777 125.314698,45.1287151 Z M108.33844,53.8978324 C108.512181,44.451352 108.551013,44.2393743 110.471381,42.4136313 C111.681969,41.2636425 112.828105,40.8642235 114.925016,40.8642235 L116.665637,40.8642235 L116.665637,34.0185922 L114.743668,34.1927598 C111.741217,34.4662793 108.985768,36.4179218 107.822418,39.0951955 L107.403276,40.0597542 L107.390866,38.898905 C107.382859,38.259352 107.28598,37.0651173 107.173489,36.243352 L106.970123,34.7506592 L101.051291,34.7506592 L101.035678,63.0185028 L108.177508,63.0156872 L108.33844,53.8978324 Z M183.279216,52.7711732 C183.457761,41.850905 183.429338,42.001743 185.789265,39.6309721 C187.399779,38.0127821 189.1404,37.2252067 191.447083,37.073162 C194.158497,36.8953743 196.438358,38.1004693 197.725408,40.3915978 C199.00165,42.6650279 199.278276,45.1898547 199.286283,54.620648 L199.292288,62.7469944 L201.85558,62.7469944 L201.85558,52.9658547 C201.85558,44.1339888 201.873995,42.9570503 201.222263,41.1268827 C197.614518,31.0078659 187.146373,34.3122235 183.279216,39.4487598 L183.102672,26.3648715 L180.397263,25.697162 L180.397263,62.7831955 L183.165123,62.7876201 L183.279216,52.7711732 Z" id="Fill-3" fill="#000000"></path>
                </g>
            </g>
        </g>
    </g>
</svg>