<?xml version="1.0" encoding="UTF-8"?>
<svg width="179px" height="72px" viewBox="0 0 179 72" version="1.1" xmlns="http://www.w3.org/2000/svg" xmlns:xlink="http://www.w3.org/1999/xlink">
    <title>Rust</title>
    <g id="Page-1" stroke="none" stroke-width="1" fill="none" fill-rule="evenodd">
        <g id="OSSN_Screen03_Affiliations" transform="translate(-251.000000, -1581.000000)" fill="#000000">
            <g id="Logos/Logo_Rust" transform="translate(251.000000, 1581.000000)">
                <g id="Logo_Rust">
                    <path d="M71.6415511,34.9807607 L68.6132106,33.1169107 C68.58771,32.8236287 68.5587638,32.5310316 68.5270605,32.239805 L71.129476,29.8263936 C71.3941287,29.5810781 71.5126708,29.2179014 71.440994,28.8663739 C71.371385,28.5134759 71.1225841,28.2229346 70.7841873,28.0975358 L67.4574237,26.8606797 C67.3740305,26.5742498 67.2865022,26.2898757 67.1969063,26.006872 L69.2720847,23.1412029 C69.4836688,22.8499764 69.5270883,22.4710393 69.3892486,22.1386984 C69.2514086,21.807728 68.9502287,21.5706354 68.593913,21.5123901 L65.0858898,20.9450122 C64.9494283,20.68051 64.8074533,20.4201192 64.6640998,20.1617842 L66.1382967,16.9445876 C66.2892313,16.6170434 66.2582172,16.2360505 66.0569712,15.9386568 C65.8564144,15.6398927 65.5166391,15.4651568 65.1541205,15.4788615 L61.5937182,15.6022045 C61.4097021,15.3733347 61.22224,15.1465207 61.0313319,14.923818 L61.849411,11.4756959 C61.932115,11.1255388 61.828046,10.758936 61.571664,10.5047124 C61.3173494,10.2511739 60.9479387,10.1463324 60.5957581,10.2285611 L57.1283976,11.0412544 C56.9037189,10.8521285 56.6755938,10.6650583 56.4447121,10.4820995 L56.5694572,6.94215531 C56.5832413,6.58377536 56.4074956,6.24321164 56.1070045,6.04449234 C55.8058246,5.8444026 55.4246978,5.81425208 55.0959498,5.96294892 L51.8608494,7.42936017 C51.5996428,7.28683049 51.3377473,7.14567127 51.0730949,7.00930873 L50.5010596,3.52075747 C50.443167,3.16717421 50.2047041,2.86703955 49.8711319,2.72999178 C49.5382486,2.59225876 49.1564323,2.63679929 48.8635227,2.8464824 L45.9792248,4.90973673 C45.6952748,4.81997044 45.4099463,4.73363033 45.1218612,4.65140166 L43.8778569,1.34306825 C43.7517334,1.00593071 43.459513,0.758559463 43.1045754,0.688665096 C42.7503271,0.619455967 42.3857411,0.736631818 42.1396968,0.998393079 L39.7123378,3.58791089 C39.4194284,3.55570465 39.1244512,3.52623939 38.8301631,3.50225602 L36.9555418,0.490631054 C36.766012,0.185699742 36.4303721,0 36.0692318,0 C35.7080916,0 35.3724514,0.185699742 35.1836111,0.490631054 L33.3089895,3.50225602 C33.0140125,3.52623939 32.7190352,3.55570465 32.4261256,3.58791089 L29.9980774,0.998393079 C29.7520334,0.736631818 29.3867578,0.619455967 29.0331987,0.688665096 C28.6782612,0.759244704 28.3860408,1.00593071 28.2599173,1.34306825 L27.0159132,4.65140166 C26.727828,4.73363033 26.4424996,4.82065567 26.1578604,4.90973673 L23.2742516,2.8464824 C22.981342,2.63611405 22.5995257,2.59157352 22.2659534,2.72999178 C21.9330702,2.86703955 21.6939182,3.16717421 21.6360255,3.52075747 L21.0639903,7.00930873 C20.7993378,7.14567127 20.5374422,7.28614523 20.2762358,7.42936017 L17.0411355,5.96294892 C16.7123875,5.81356685 16.3291929,5.8444026 16.0300805,6.04449234 C15.7295897,6.24321164 15.553844,6.58377536 15.5676279,6.94215531 L15.6916838,10.4820995 C15.4614913,10.6650583 15.2333664,10.8521285 15.0079983,11.0412544 L11.5406379,10.2285611 C11.1884572,10.1470177 10.8190465,10.2511739 10.5640429,10.5047124 C10.3076609,10.758936 10.2035918,11.1255388 10.2862957,11.4756959 L11.1029965,14.923818 C10.9134668,15.1472059 10.7260047,15.3733347 10.5419885,15.6022045 L6.98158629,15.4788615 C6.62251357,15.468583 6.27929247,15.6398927 6.07873553,15.9386568 C5.87748941,16.2360505 5.84716467,16.6170434 5.99672086,16.9445876 L7.47160681,20.1617842 C7.32825339,20.4201192 7.1862784,20.68051 7.0491278,20.9450122 L3.54110467,21.5123901 C3.18478876,21.5699501 2.88429799,21.8070428 2.74576898,22.1386984 C2.60792917,22.4710393 2.65272711,22.8499764 2.86293282,23.1412029 L4.93811113,26.006872 C4.84782606,26.2898757 4.76029778,26.5742498 4.67759389,26.8606797 L1.35014092,28.0975358 C1.01243339,28.2229346 0.763632538,28.5134759 0.693334234,28.8663739 C0.623035933,29.2185867 0.740888967,29.5810781 1.0048522,29.8263936 L3.60795699,32.239805 C3.57556462,32.5310316 3.54661827,32.8243139 3.5218071,33.1169107 L0.493466514,34.9807607 C0.18677294,35.1692012 -1.42108547e-14,35.5022276 -1.42108547e-14,35.861978 C-1.42108547e-14,36.2217283 0.18677294,36.5547544 0.493466514,36.7425099 L3.5218071,38.6063597 C3.54661827,38.899642 3.57556462,39.1922391 3.60795699,39.4834656 L1.0048522,41.897562 C0.740888967,42.1421925 0.623035933,42.5053689 0.693334234,42.8568965 C0.763632538,43.2097945 1.01243339,43.4996506 1.35014092,43.6257346 L4.67759389,44.8625909 C4.76029778,45.1490207 4.84782606,45.4333949 4.93811113,45.7163986 L2.86293282,48.5827528 C2.65203791,48.8746646 2.60723997,49.2536017 2.74576898,49.5845723 C2.88429799,49.9169131 3.18547798,50.1540057 3.54179386,50.2108804 L7.0491278,50.7782583 C7.1862784,51.0427605 7.326875,51.3031512 7.47160681,51.5628569 L5.99672086,54.7786831 C5.84647545,55.1055421 5.87748941,55.4858494 6.07873553,55.7846136 C6.27998166,56.084063 6.62251357,56.2587991 6.98158629,56.2444089 L10.5406101,56.1203807 C10.7260047,56.350621 10.9127776,56.5760647 11.1029965,56.8001377 L10.2862957,60.2489453 C10.2035918,60.598417 10.3076609,60.9636492 10.5640429,61.2178731 C10.8183573,61.4734672 11.1884572,61.5755677 11.5406379,61.4933389 L15.0079983,60.6813308 C15.2333664,60.8718274 15.4614913,61.0568419 15.6916838,61.2391153 L15.5676279,64.7797447 C15.553844,65.1381246 15.7295897,65.4780033 16.0300805,65.6780929 C16.3291929,65.8774974 16.7123875,65.907648 17.0411355,65.7582659 L20.2762358,64.2925398 C20.536753,64.4364401 20.7986486,64.5762288 21.0639903,64.7125914 L21.6360255,68.1990869 C21.6939182,68.5540405 21.9323811,68.8541752 22.2659534,68.9905378 C22.5988365,69.1282708 22.981342,69.0837302 23.2742516,68.8747324 L26.156482,66.8101078 C26.4411212,66.8998738 26.7271388,66.9875844 27.015224,67.0698132 L28.2592284,70.3767762 C28.3853516,70.7125431 28.677572,70.9612849 29.0325095,71.0298087 C29.3867578,71.1010736 29.7513442,70.9832126 29.9973882,70.7200809 L32.4254364,68.1319334 C32.718346,68.1655103 33.0133233,68.1936049 33.3083003,68.2196439 L35.1829219,71.2305839 C35.3717625,71.5341446 35.7074024,71.7212149 36.0685426,71.7212149 C36.4296829,71.7212149 36.7653228,71.5348299 36.9548526,71.2305839 L38.8294739,68.2196439 C39.1244512,68.1936049 39.4187392,68.1655103 39.7116488,68.1319334 L42.1390076,70.7200809 C42.3850519,70.9832126 42.7503271,71.1010736 43.1038865,71.0298087 C43.4588238,70.9605996 43.7510441,70.7125431 43.8771676,70.3767762 L45.121172,67.0698132 C45.4092571,66.9875844 45.6952748,66.8998738 45.979914,66.8101078 L48.8628335,68.8747324 C49.1557431,69.0837302 49.5375594,69.1282708 49.8704427,68.9905378 C50.2040149,68.8541752 50.4424778,68.5533555 50.5003703,68.1990869 L51.0724057,64.7125914 C51.3370581,64.5762288 51.5989536,64.4343843 51.8601602,64.2925398 L55.0952606,65.7582659 C55.4240085,65.907648 55.8065138,65.8774974 56.1063156,65.6780929 C56.4068064,65.4780033 56.5818628,65.1388099 56.5687679,64.7797447 L56.4447121,61.2391153 C56.6749046,61.0561566 56.9030297,60.8718274 57.1277084,60.6813308 L60.5950689,61.4933389 C60.9472495,61.5755677 61.3166601,61.4734672 61.5709748,61.2178731 C61.8273568,60.9636492 61.9314258,60.598417 61.8487218,60.2489453 L61.0320209,56.8001377 C61.22224,56.5760647 61.4097021,56.350621 61.593029,56.1203807 L65.1534312,56.2444089 C65.5125041,56.2587991 65.8557251,56.084063 66.056282,55.7846136 C66.257528,55.4858494 66.2885421,55.1055421 66.1376075,54.7786831 L64.6634106,51.5628569 C64.8074533,51.3031512 64.9487391,51.0427605 65.0852006,50.7782583 L68.5932237,50.2108804 C68.9502287,50.1540057 69.2507197,49.9169131 69.3885594,49.5845723 C69.5263991,49.2536017 69.4829796,48.8746646 69.2713955,48.5827528 L67.1962174,45.7163986 C67.285813,45.4333949 67.3733415,45.1490207 67.4567344,44.8625909 L70.7834984,43.6257346 C71.1218949,43.4996506 71.371385,43.2097945 71.4403048,42.8568965 C71.5119816,42.5046837 71.3934395,42.1421925 71.1287871,41.897562 L68.5263713,39.4834656 C68.5580746,39.1922391 68.5870208,38.8989567 68.6125214,38.6063597 L71.6408619,36.7425099 C71.9475554,36.5547544 72.1343284,36.2210431 72.1343284,35.861978 C72.1343284,35.5029128 71.9482446,35.1692012 71.6415511,34.9807607 Z M51.3728965,59.958404 C50.2164206,59.7103475 49.4810452,58.5769621 49.7291569,57.4237051 C49.9765793,56.2718185 51.1158252,55.5386128 52.2716122,55.7866694 C53.428088,56.0326701 54.1648418,57.1681109 53.9167302,58.3193125 C53.6686185,59.4705138 52.5286831,60.2044047 51.3728965,59.958404 Z M50.3439223,53.0388614 C49.2887585,52.8141031 48.2508247,53.4815258 48.0247675,54.5326823 L46.9496169,59.5212214 C43.6318129,61.0184684 39.9473548,61.8503485 36.0671642,61.8503485 C32.0980669,61.8503485 28.3336617,60.9773541 24.9565865,59.4163799 L23.8821251,54.4278408 C23.6560679,53.3780548 22.6181341,52.7092616 21.5636596,52.9347051 L17.1341773,53.8803349 C16.3119629,53.0388614 15.5469519,52.1425689 14.8439689,51.1962542 L36.3966014,51.1962542 C36.6405777,51.1962542 36.8032288,51.1523986 36.8032288,50.9317519 L36.8032288,43.351639 C36.8032288,43.1309921 36.6405777,43.0871368 36.3966014,43.0871368 L30.0931868,43.0871368 L30.0931868,38.2822417 L36.9107439,38.2822417 C37.5330904,38.2822417 40.2381967,38.4590334 41.1031414,41.8968768 C41.3739968,42.9542004 41.9687756,46.3934146 42.3754031,47.4945935 C42.780652,48.7293941 44.4305946,51.1962542 46.1887412,51.1962542 L56.92853,51.1962542 C57.0505182,51.1962542 57.1807767,51.1825492 57.3179275,51.1578807 C56.5729033,52.1644967 55.7555131,53.1169786 54.8754061,54.0071039 L50.3439223,53.0388614 Z M20.5346854,59.8542474 C19.3782094,60.102304 18.2396526,59.3690983 17.9908517,58.2172117 C17.7434293,57.0632694 18.4788047,55.9305696 19.6352807,55.6825131 C20.7917566,55.4365123 21.9310027,56.169718 22.1791143,57.3216046 C22.4265368,58.4728059 21.6904722,59.6075614 20.5346854,59.8542474 Z M12.3587172,26.8908302 C12.8383997,27.9673405 12.3504468,29.2288653 11.2690935,29.7051064 C10.1877402,30.182718 8.92237079,29.6968835 8.44268824,28.6196879 C7.96300572,27.5424924 8.45095864,26.2830233 9.53231193,25.8054118 C10.6143544,25.3284855 11.8790347,25.8136347 12.3587172,26.8908302 Z M9.84589749,32.81335 L14.4600851,30.7747642 C15.4456397,30.3396376 15.8908623,29.1911771 15.4532209,28.2092299 L14.5028154,26.072655 L18.2403418,26.072655 L18.2403418,42.8226346 L10.6998151,42.8226346 C10.0457652,40.5366777 9.69496289,38.1239515 9.69496289,35.6303671 C9.69496289,34.6785703 9.74665283,33.7377373 9.84589749,32.81335 Z M30.0945652,31.186593 L30.0945652,26.2494466 L38.9948816,26.2494466 C39.4545776,26.2494466 42.2410092,26.7777658 42.2410092,28.849243 C42.2410092,30.5691927 40.1038029,31.1859077 38.3463455,31.1859077 L30.0945652,31.1859077 L30.0945652,31.186593 Z M62.4400545,35.6303671 C62.4400545,36.2854556 62.4159326,36.9336915 62.3676889,37.5771309 L59.6618933,37.5771309 C59.3910382,37.5771309 59.2821446,37.7539225 59.2821446,38.0177395 L59.2821446,39.2532253 C59.2821446,42.161379 57.6328913,42.7938547 56.1876409,42.9548857 C54.8113105,43.1090646 53.2854238,42.3820259 53.0972724,41.544664 C52.285396,37.0042711 50.9324984,36.0346581 48.7959813,34.3592489 C51.4473301,32.6852102 54.2061937,30.2156094 54.2061937,26.9100169 C54.2061937,23.3406075 51.745064,21.0923386 50.0675534,19.9897892 C47.7139387,18.4473165 45.1080771,18.1382737 44.4050943,18.1382737 L16.4215455,18.1382737 C20.2162755,13.9274807 25.3590787,10.9446357 31.1759185,9.85921732 L34.4744252,13.2998018 C35.2201387,14.0761775 36.4551832,14.1049575 37.2353565,13.3628438 L40.9260173,9.85305017 C48.6595198,11.2845142 55.2069107,16.070908 58.9802754,22.6375523 L56.4536717,28.3113304 C56.0174089,29.2932779 56.4626313,30.4417381 57.4474968,30.8768649 L62.3118636,33.0250889 C62.3959458,33.8836931 62.4400545,34.7512057 62.4400545,35.6303671 Z M34.4758037,6.93256197 C35.3304104,6.11849814 36.6860649,6.15070439 37.5041442,7.00177108 C38.3208452,7.85489354 38.2898311,9.20412891 37.4331567,10.0175075 C36.5785498,10.8315713 35.2228953,10.8000503 34.4048162,9.94761312 C33.5888045,9.09586116 33.6198183,7.74662576 34.4758037,6.93256197 Z M59.5488647,26.9943013 C60.0278581,25.917791 61.2932275,25.4319566 62.3745808,25.9095681 C63.4559341,26.3864944 63.943887,27.647334 63.4642045,28.7238442 C62.9852111,29.8010398 61.7198417,30.2868742 60.6377992,29.8092627 C59.5578243,29.3323363 59.0698714,28.072182 59.5488647,26.9943013 Z" id="Shape" fill-rule="nonzero"></path>
                    <path d="M103.237582,51.8346667 L95.8798806,38.5386667 L91.8403582,38.5386667 L91.8403582,51.8346667 L85.4925373,51.8346667 L85.4925373,18.6666667 L95.3989851,18.6666667 C104.103194,18.6666667 108.575522,21.8346667 108.575522,28.4106667 C108.575522,32.9706667 106.363403,35.6106667 101.842985,37.3866667 L110.547194,51.8346667 L103.237582,51.8346667 Z M91.8403582,23.2746667 L91.8403582,33.9786667 L95.7837015,33.9786667 C99.7270448,33.9786667 101.939164,32.3946667 101.939164,28.4106667 C101.939164,24.8106667 99.8713134,23.2746667 95.2547164,23.2746667 L91.8403582,23.2746667 Z M134.490448,26.4426667 L134.490448,51.8346667 L129.152507,51.8346667 L128.815881,48.2826667 C126.940388,51.1626667 124.487821,52.5546667 121.025373,52.5546667 C116.408776,52.5546667 113.908119,49.5786667 113.908119,44.6826667 L113.908119,26.4426667 L120.063582,26.4426667 L120.063582,43.9146667 C120.063582,46.8906667 121.073463,47.8986667 123.189403,47.8986667 C125.257254,47.8986667 126.988478,46.5066667 128.334985,44.2986667 L128.334985,26.4426667 L134.490448,26.4426667 Z M149.392866,25.7226667 C153.047672,25.7226667 156.029224,26.8746667 158.433701,28.7466667 L156.029224,32.3466667 C153.913284,31.0026667 151.893522,30.2826667 149.633313,30.2826667 C147.180746,30.2826667 145.786149,31.2906667 145.786149,32.8266667 C145.786149,34.5066667 146.79603,35.2746667 151.12409,36.4746667 C156.317761,37.8666667 159.251224,39.9786667 159.251224,44.4906667 C159.251224,49.7706667 154.34609,52.5546667 148.527254,52.5546667 C144.151104,52.5546667 140.736746,51.0666667 138.380358,48.9546667 L141.45809,45.4986667 C143.429761,46.9866667 145.786149,47.9946667 148.382985,47.9946667 C151.12409,47.9946667 152.903403,46.8426667 152.903403,44.9226667 C152.903403,42.8106667 151.893522,42.1386667 147.132657,40.7946667 C141.890896,39.3546667 139.582597,36.8586667 139.582597,33.1146667 C139.582597,28.8906667 143.477851,25.7226667 149.392866,25.7226667 Z M176.125313,46.6506667 L178.289343,50.6346667 C176.46194,51.9306667 174.153642,52.5546667 171.893433,52.5546667 C166.892119,52.5066667 164.247194,49.6746667 164.247194,44.2506667 L164.247194,30.8586667 L160.255761,30.8586667 L160.255761,26.4426667 L164.247194,26.4426667 L164.247194,20.8266667 L170.402657,20.1066667 L170.402657,26.4426667 L176.317672,26.4426667 L175.692507,30.8586667 L170.402657,30.8586667 L170.402657,44.1066667 C170.402657,46.6026667 171.220179,47.6106667 173.095672,47.6106667 C174.057463,47.6106667 175.019254,47.3226667 176.125313,46.6506667 Z" id="Rust"></path>
                </g>
            </g>
        </g>
    </g>
</svg>