<?xml version="1.0" encoding="UTF-8"?>
<svg width="193px" height="48px" viewBox="0 0 193 48" version="1.1" xmlns="http://www.w3.org/2000/svg" xmlns:xlink="http://www.w3.org/1999/xlink">
    <title>Posse</title>
    <g id="Page-1" stroke="none" stroke-width="1" fill="none" fill-rule="evenodd">
        <g id="OSSN_Screen03_Affiliations" transform="translate(-244.000000, -1238.000000)">
            <g id="Logos/Logo_Posse" transform="translate(244.000000, 1238.000000)">
                <g id="Logo_Posse">
                    <g id="#ff330eff" transform="translate(37.346753, 0.000000)" fill="#FF330E" fill-rule="nonzero">
                        <path d="M20.0369091,0.464921466 C27.1252727,-0.698638743 34.6998961,2.19643979 39.1564416,7.85340314 C37.7227273,6.9260733 35.9782078,6.77277487 34.3189091,6.9713089 C33.8401688,7.09947644 33.3564156,7.20502618 32.8751688,7.31811518 C30.864961,7.94638743 29.1254545,9.37884817 28.2155974,11.2963351 C28.1754935,11.6682723 27.6992597,11.4898429 27.6416104,11.2460733 C26.441,9.53968586 24.698987,8.15748691 22.6236104,7.73528796 C20.5732987,7.39350785 18.3700909,7.55937173 16.5228052,8.57968586 C14.5501948,9.70554974 13.1841558,11.8090052 12.9711039,14.0783246 C12.5525195,16.998534 14.0338571,19.848377 16.0791558,21.8312042 C18.7485714,24.4850262 22.6110779,25.6410471 26.3106623,25.4751832 C30.1405844,25.3445026 34.0958312,24.8846073 37.5447662,23.095288 C39.8532468,21.9317277 41.8383896,19.9639791 42.6354545,17.4609424 C42.8209351,17.0714136 42.6605195,16.4381152 43.1969091,16.2998953 C43.7307922,19.7880628 44.3975195,23.3918325 43.6756494,26.9001047 C43.4525714,27.2871204 43.2069351,27.6590576 42.9437532,28.0184293 C42.7933636,28.0360209 42.4950909,28.0712042 42.3447013,28.0887958 C42.2845455,29.8228272 42.1391688,31.8182199 40.7455584,33.0446073 C40.4197143,33.0596859 40.0988831,33.0772775 39.7755455,33.0948691 C39.2717403,34.6203141 38.6701818,36.3744503 37.1587662,37.1685864 C36.5371558,37.6309948 35.4919481,36.9524607 35.126,37.7842932 C34.0632468,39.2921466 32.3212338,41.0085864 30.311026,40.405445 C28.4010779,41.1970681 26.4785974,41.9962304 24.4458312,42.4159162 C24.3931948,42.7677487 24.3380519,43.1170681 24.2804026,43.4663874 C24.2277662,44.4816754 24.2102208,45.4969634 24.119987,46.5097382 C24.0648442,46.4318325 23.9520519,46.2735079 23.8969091,46.1956021 C22.7664805,45.2004188 21.7688961,44.0670157 20.6434805,43.0642932 C19.4303377,43.2125654 18.2046623,43.1120419 16.994026,43.2779058 C16.4250519,44.8234555 15.7683506,46.3363351 15.059013,47.8190576 C14.5326494,46.1679581 13.9085325,44.5520419 13.327026,42.918534 C11.4847532,42.7250262 9.70263636,42.212356 7.91801299,41.7449215 C7.913,41.6619895 7.90798701,41.4986387 7.90297403,41.4182199 C8.13106494,41.252356 8.35664935,41.0864921 8.58474026,40.9206283 C9.98085714,41.1166492 10.8054935,39.8073298 11.3468961,38.7317277 C11.4596883,38.3321466 11.5724805,37.9325654 11.6802597,37.5304712 C13.6052468,37.3922513 14.3396494,35.2737173 14.1466494,33.6075393 C14.7757792,33.4793717 15.3422468,33.1024084 15.643026,32.5218848 C16.5278182,30.9235602 16.5177922,29.0186387 16.4350779,27.2443979 C16.3072468,27.2494241 16.0490779,27.2594764 15.9212468,27.2645026 C15.8610909,28.9432461 15.9237532,30.7401047 15.1166623,32.2630366 C14.8259091,32.9038743 14.1065455,33.0370681 13.4749091,33.0194764 C13.6528701,34.0624084 13.5726623,35.2108901 13.0613377,36.1507853 C12.6728312,36.8117277 11.8807792,36.8318325 11.204026,36.8770681 C11.0385974,38.0582199 10.6124935,39.2996859 9.66002597,40.0762304 C9.28154545,40.4506806 8.73011688,40.2546597 8.2614026,40.2823037 C7.69744156,40.9759162 6.94298701,41.5036649 6.07824675,41.7474346 C4.23848052,42.2450262 2.32351948,42.4184293 0.421090909,42.3581152 C-0.0601558442,36.3643979 0.117805195,30.3229319 0.977532468,24.3694241 C1.92498701,18.7074346 3.54668831,12.9700524 6.99562338,8.29570681 C10.0886364,4.0913089 14.8910779,1.23643979 20.0369091,0.464921466 Z" id="Shape"></path>
                    </g>
                    <g id="#262626ff" transform="translate(0.000000, 2.513089)" fill="#262626" fill-rule="nonzero">
                        <path d="M93.4571169,1.9426178 C98.9814286,-0.502617801 105.347922,-0.120628272 111.050195,1.47518325 C113.992818,2.38994764 116.767506,3.85005236 119.141156,5.83036649 C116.968026,8.72293194 114.837506,11.6557068 112.61174,14.5055497 C109.533766,12.0829319 105.66374,10.8012565 101.786195,10.5248168 C100.78861,10.4670157 99.7358831,10.4494241 98.8084805,10.8841885 C97.8785714,11.2410471 97.5928312,12.7639791 98.5352727,13.271623 C99.6255974,13.8219895 100.848766,14.0632461 102.041857,14.2843979 L102.18974,14.3798953 C106.260286,15.1388482 110.468688,15.784712 114.153234,17.787644 C116.802597,19.227644 119.088519,21.6226178 119.797857,24.6257592 C120.151273,26.2517277 120.314195,27.9556021 120.020935,29.6067016 C119.720156,33.1401047 117.82274,36.5227225 114.907688,38.5507853 C112.61174,40.2446073 109.809481,41.0312042 107.039805,41.5162304 C106.275325,41.6067016 105.505831,41.6117277 104.743857,41.6846073 C102.568221,42.013822 100.377545,41.6041885 98.1968961,41.5388482 C95.2617922,41.1493194 92.3617792,40.375288 89.7224416,38.9981152 C88.0255455,38.1562304 86.4314156,37.1158115 84.9575974,35.9296335 C84.7069481,35.7135079 84.3284675,35.4395812 84.544026,35.067644 C86.4940779,32.1549738 88.5619351,29.3176963 90.506974,26.4 C90.6247792,26.4427225 90.8578831,26.5256545 90.9756883,26.5658639 C94.9209091,30.1419895 100.482818,32.2479581 105.796584,31.1974869 C106.052247,31.1195812 106.310416,31.0467016 106.573597,30.9788482 C107.125026,30.7174869 107.706532,30.3455497 107.814312,29.6896335 C108.107571,28.6894241 107.007221,28.1340314 106.212662,27.9480628 C102.743675,27.0760209 99.1794416,26.6513089 95.728,25.6988482 C92.6876234,24.7489005 89.6522597,23.2335079 87.7247662,20.6023037 C86.7823247,19.453822 86.260974,18.041466 85.9200909,16.6090052 C85.8624416,16.1717277 85.8223377,15.7319372 85.7671948,15.2921466 C85.5691818,14.2441885 85.5917403,13.1484817 85.7571688,12.0954974 C86.0754935,9.01696335 87.6646104,6.1017801 90.0432727,4.1365445 C91.0533896,3.2217801 92.259013,2.56837696 93.4571169,1.9426178 Z" id="Shape"></path>
                        <path d="M131.588403,1.70136126 C134.974675,0.27895288 138.741935,0.012565445 142.368831,0.321675393 C146.517078,0.633298429 150.647779,1.79937173 154.189455,4.01842932 C154.991532,4.45570681 155.663273,5.08900524 156.450312,5.55141361 C156.492922,5.66198953 156.575636,5.88062827 156.618247,5.99120419 C154.435091,8.8008377 152.37726,11.7084817 150.189091,14.513089 C146.908091,11.942199 142.742299,10.6253403 138.604078,10.502199 C137.476156,10.4896335 136.042442,10.6102618 135.518584,11.7889005 C135.521091,12.0779058 135.521091,12.3643979 135.516078,12.6534031 C136.197844,13.6435602 137.488688,13.7717277 138.551442,14.0783246 C143.211013,15.1438743 148.168857,15.6037696 152.337156,18.1470157 C154.522818,19.5267016 156.425247,21.5396859 157.222312,24.0477487 C158.26,28.1089005 157.673481,32.7706806 155.011584,36.1055497 C152.825922,38.9880628 149.361948,40.5662827 145.897974,41.2749738 C143.419052,41.6594764 140.879974,41.9761257 138.378494,41.6871204 C137.37339,41.5690052 136.348234,41.6846073 135.360675,41.4433508 C134.851857,41.3805236 134.333013,41.3478534 133.846753,41.1845026 C129.420286,40.4657592 125.304623,38.2969634 121.898299,35.4119372 C122.835727,33.911623 123.875922,32.4741361 124.903584,31.0341361 L124.981286,30.8205236 C126.066597,29.4106806 127.021571,27.9078534 128.036701,26.4502618 C128.134455,26.457801 128.324948,26.4703665 128.420195,26.4779058 C131.555818,29.3051309 135.568714,31.2201047 139.814714,31.4487958 C141.323623,31.566911 142.87013,31.4236649 144.296325,30.9034555 C144.945506,30.6546597 145.301429,30.0314136 145.489416,29.3981152 C145.23626,28.1993717 143.930377,27.953089 142.922766,27.7344503 C138.907364,26.7970681 134.716506,26.4427225 130.891597,24.8142408 C127.999104,23.6104712 125.359766,21.4944503 124.086468,18.5667016 C122.893377,15.4705759 122.873325,11.9019895 124.161662,8.83099476 C125.39987,5.70219895 128.054247,3.32984293 131.057026,1.93005236 C131.232481,1.85968586 131.410442,1.78429319 131.588403,1.70136126 Z" id="Shape"></path>
                        <path d="M0.255662338,0.844397906 C6.51938961,0.854450262 12.7831169,0.841884817 19.0468442,0.851937173 C20.7487532,0.83434555 22.4331169,1.11581152 24.0924156,1.46513089 C27.1453247,2.23162304 30.1105065,3.84251309 31.9352338,6.47874346 C34.1935844,9.67790576 34.6973896,13.7767539 34.3941039,17.5941361 C34.2737922,19.1572775 33.9128571,20.6877487 33.4015325,22.165445 C32.3162208,24.8494241 30.3185455,27.1790576 27.7117922,28.4657592 C25.1376234,29.8253403 22.189987,30.4209424 19.294987,30.3505759 C16.9915195,30.3455497 14.6905584,30.353089 12.3870909,30.3455497 C12.3169091,33.9191623 12.3870909,37.495288 12.3494935,41.0714136 C8.32155844,41.0940314 4.29362338,41.0689005 0.265688312,41.0864921 C0.233103896,27.671623 0.255662338,14.259267 0.255662338,0.844397906 Z M12.3595195,20.2328796 C15.0038701,20.2052356 17.6507273,20.2881675 20.2950779,20.187644 C21.2024286,19.9086911 22.0571429,19.426178 22.6461688,18.662199 C23.4557662,17.1643979 23.6312208,15.2996859 23.0121169,13.7013613 C22.3378701,12.2940314 20.8064026,11.5501571 19.3,11.4848168 C16.9915195,11.406911 14.6805325,11.4873298 12.3695455,11.4496335 C12.3444805,14.3773822 12.3645325,17.3051309 12.3595195,20.2328796 Z" id="Shape"></path>
                        <path d="M162.538584,0.846910995 C172.607169,0.849424084 182.675753,0.849424084 192.744338,0.844397906 C192.749351,4.38282723 192.75687,7.92125654 192.741831,11.4596859 C186.696169,11.4496335 180.653013,11.4571728 174.607351,11.4571728 C174.607351,12.7790576 174.604844,14.0984293 174.609857,15.4203141 C180.181792,15.4278534 185.756234,15.3801047 191.325662,15.445445 C191.300597,18.9612565 191.31313,22.4795812 191.320649,25.9953927 C185.748714,26.0381152 180.179286,26.0079581 174.609857,26.0104712 C174.607351,27.4554974 174.602338,28.9030366 174.612364,30.3480628 C180.645494,30.3405236 186.68113,30.3606283 192.71426,30.3405236 C192.784442,33.9216754 192.746844,37.5053403 192.734312,41.0864921 C182.67074,41.0764398 172.609675,41.0789529 162.546104,41.0864921 C162.526052,27.671623 162.541091,14.259267 162.538584,0.846910995 Z" id="Shape"></path>
                        <path d="M71.7132857,7.06680628 C72.4401688,6.84565445 73.2021429,6.91350785 73.9490779,6.96125654 C75.7838312,7.46387435 77.382974,9.07727749 77.3955065,11.0601047 C77.6511688,13.128377 76.1898831,15.1966492 74.1846883,15.699267 C72.9189091,16.1114136 71.5478571,15.7872251 70.4249481,15.1313089 C69.2669481,14.2090052 68.4097273,12.8318325 68.5124935,11.3038743 C68.4473247,9.35623037 69.8860519,7.60963351 71.7132857,7.06680628 Z" id="Shape"></path>
                        <path d="M55.2205584,8.62743455 C56.3209091,7.54429319 57.9927403,7.4060733 59.428961,7.71769634 C60.5293117,8.0217801 61.3614675,8.85361257 62.0056364,9.75832461 C62.1485065,10.1855497 62.3039091,10.6102618 62.4893896,11.0249215 C62.5294935,11.886911 62.5695974,12.7715183 62.2763377,13.6008377 C61.7374416,14.6236649 60.9679481,15.5987435 59.8751169,16.0460733 C58.0604156,16.8301571 55.7268701,16.2521466 54.5839091,14.6085864 C53.2253896,12.8494241 53.4835584,10.0448168 55.2205584,8.62743455 Z" id="Shape"></path>
                        <path d="M65.7127403,13.5128796 C66.2767013,13.9099476 66.7554416,14.4075393 67.2893247,14.8372775 C67.0436883,16.7472251 66.6175844,18.6295288 66.4045325,20.5445026 C66.011013,19.4663874 65.5573377,18.4108901 65.2164545,17.3176963 C65.0735844,17.0110995 64.9908701,16.6818848 64.8454935,16.3803141 C64.7452338,15.9556021 64.3943247,15.4957068 64.6349481,15.0609424 C64.9658052,14.5256545 65.3743636,14.0431414 65.7127403,13.5128796 Z" id="Shape"></path>
                    </g>
                    <g id="#ffffffff" transform="translate(55.644156, 11.811518)" fill="#FFFFFF" fill-rule="nonzero">
                        <ellipse id="Oval" cx="15.9162338" cy="1.13089005" rx="1.12792208" ry="1.13089005"></ellipse>
                        <ellipse id="Oval-Copy" cx="1.12792208" cy="1.63350785" rx="1.12792208" ry="1.13089005"></ellipse>
                    </g>
                </g>
            </g>
        </g>
    </g>
</svg>