<?xml version="1.0" encoding="UTF-8"?>
<svg width="214px" height="72px" viewBox="0 0 214 72" version="1.1" xmlns="http://www.w3.org/2000/svg" xmlns:xlink="http://www.w3.org/1999/xlink">
    <title>Github</title>
    <g id="Page-1" stroke="none" stroke-width="1" fill="none" fill-rule="evenodd">
        <g id="OSSN_Screen03_Affiliations" transform="translate(-613.000000, -1569.000000)">
            <g id="Logos/Logo_GitHub" transform="translate(613.000000, 1569.000000)">
                <g id="Logo_GitHub">
                    <path d="M35.9273048,0 C16.087803,0 0,16.5254213 0,36.9114198 C0,53.2198519 10.2942664,67.0558276 24.5692838,71.9365603 C26.364816,72.2782418 27.0240108,71.1358388 27.0240108,70.1609148 C27.0240108,69.2807324 26.9906941,66.3730749 26.9752256,63.2887698 C16.9802147,65.5216209 14.8711484,58.9337013 14.8711484,58.9337013 C13.2368451,54.6672627 10.8820682,53.5328054 10.8820682,53.5328054 C7.62238572,51.2418868 11.1277788,51.2889519 11.1277788,51.2889519 C14.7355019,51.5493391 16.6351489,55.092684 16.6351489,55.092684 C19.8395018,60.7356301 25.0398822,59.1042367 27.0900493,58.1610969 C27.4125074,55.7754364 28.3435905,54.1470992 29.3710535,53.2253528 C21.3911083,52.2919927 13.0024384,49.1270042 13.0024384,34.983576 C13.0024384,30.953686 14.4059044,27.6609491 16.704162,25.076025 C16.3311339,24.1463325 15.1013907,20.3921108 17.0522026,15.307836 C17.0522026,15.307836 20.0691491,14.3157972 26.9347696,19.091397 C29.8006013,18.2735611 32.8740669,17.8634206 35.9273048,17.8493621 C38.9805427,17.8634206 42.0563883,18.2735611 44.9275739,19.091397 C51.7848655,14.3157972 54.7976471,15.307836 54.7976471,15.307836 C56.753219,20.3921108 55.5228806,24.1463325 55.1498525,25.076025 C57.4534647,27.6609491 58.8474115,30.953686 58.8474115,34.983576 C58.8474115,49.1606225 50.4426783,52.2822133 42.4425051,53.1960134 C43.7311476,54.3414731 44.8793837,56.587771 44.8793837,60.0314843 C44.8793837,64.9702848 44.8377382,68.945163 44.8377382,70.1609148 C44.8377382,71.1431738 45.4844389,72.2941341 47.3055536,71.9316701 C61.5728368,67.0454362 71.8540146,53.2143507 71.8540146,36.9114198 C71.8540146,16.5254213 55.7685916,0 35.9273048,0 Z M13.4559439,52.5810967 C13.3768167,52.7644679 13.0960045,52.8194793 12.8401798,52.6935646 C12.5795956,52.5731504 12.4332402,52.3231543 12.5177218,52.139172 C12.5950641,51.9502993 12.8764713,51.897733 13.1364605,52.0242591 C13.3976397,52.1446729 13.546375,52.3971141 13.4559439,52.5810967 Z M15.2231681,54.2011607 C15.0518251,54.3643611 14.7168733,54.2885676 14.4896057,54.0306256 C14.254604,53.7732945 14.2105784,53.4291676 14.3843011,53.2635221 C14.5609986,53.1003216 14.8858366,53.1767264 15.1214332,53.4340575 C15.3564349,53.6944446 15.4022454,54.0361265 15.2231681,54.2011607 Z M16.4355508,56.2739772 C16.2154227,56.4310655 15.8554833,56.283757 15.6329753,55.9555226 C15.412847,55.6272879 15.412847,55.2336508 15.6377349,55.0759515 C15.8608377,54.9182522 16.2154227,55.0600595 16.4409053,55.3858491 C16.6604386,55.7195847 16.6604386,56.1132216 16.4355508,56.2739772 Z M18.4859495,58.6745916 C18.289024,58.8976939 17.8695905,58.8377924 17.5626008,58.5333962 C17.248472,58.2357231 17.1610156,57.8133579 17.3585361,57.5902561 C17.5578413,57.3665433 17.9796546,57.4295007 18.289024,57.7314521 C18.6007731,58.0285139 18.6959637,58.4539352 18.4859495,58.6745916 Z M21.1358907,59.485012 C21.0490294,59.7741276 20.6450643,59.9055435 20.2381246,59.7826849 C19.8317798,59.6561588 19.5658411,59.3175333 19.647943,59.0253617 C19.7324246,58.7344127 20.1381744,58.5974953 20.5480889,58.7289112 C20.9538387,58.8548263 21.2203724,59.1910069 21.1358907,59.485012 Z M24.1516351,59.8287713 C24.161749,60.1331674 23.8166831,60.3856086 23.3895155,60.3911101 C22.959968,60.4008898 22.6125224,60.1545612 22.6077628,59.8550546 C22.6077628,59.547602 22.9450944,59.2976059 23.3746419,59.290271 C23.8018097,59.2817137 24.1516351,59.5262086 24.1516351,59.8287713 Z M27.114266,59.7120964 C27.1654309,60.0091582 26.8685553,60.3141654 26.4443623,60.3954601 C26.0273086,60.4736984 25.6411917,60.2903272 25.588242,59.9957107 C25.5364822,59.6913143 25.8387122,59.3863068 26.255171,59.3074575 C26.6799589,59.231664 27.0601264,59.410145 27.114266,59.7120964 Z" id="Shape" fill="#161614" fill-rule="nonzero"></path>
                    <path d="M118.149758,34.4164157 C118.407173,34.4164157 118.615808,34.630021 118.615808,34.8939062 L118.615808,50.4681936 C118.615808,50.5576176 118.600976,50.7526632 118.464523,50.8299391 C118.464523,50.8299391 115.154057,53.2173913 109.696931,53.2173913 C103.105993,53.2173913 95.2846715,51.1393799 95.2846715,37.1939591 C95.2846715,23.2485384 102.116215,20.3478261 108.775709,20.3478261 C114.556829,20.3478261 116.845216,21.6588158 117.220297,21.9328244 C117.357409,22.0333842 117.398279,22.1821993 117.398279,22.3057057 L116.285562,27.1302152 C116.285562,27.3941004 116.01727,27.6897057 115.726896,27.5989319 C114.803037,27.3060261 113.351825,26.6989552 109.982361,26.6989552 C106.090158,26.6989552 101.944166,27.8786772 101.944166,36.8443619 C101.944166,45.8083593 105.925689,46.8743609 108.775709,46.8743609 C111.19165,46.8743609 112.06541,46.569307 112.06541,46.569307 L112.06541,40.3653056 L108.173866,40.3653056 C107.916451,40.3653056 107.707817,40.150688 107.707817,39.8874777 L107.707817,34.8939062 C107.707817,34.630021 107.916451,34.4164157 108.173866,34.4164157 L118.149758,34.4164157 Z M169.561514,22.0185365 L169.561514,52.1115707 C169.560855,52.3771431 169.355187,52.5931105 169.097772,52.5931105 L163.467607,52.5931105 C163.210522,52.5931105 163.002217,52.3771431 163.002217,52.1115707 C163.002217,52.1105583 163.017708,39.2399129 163.017708,39.2399129 L154.261982,39.2399129 L154.261982,52.1115707 C154.261982,52.3771431 154.055654,52.5931105 153.798569,52.5931105 L148.181918,52.5931105 C147.926481,52.5931105 147.717846,52.3771431 147.717846,52.1115707 L147.717846,22.0185365 C147.717846,21.7529641 147.926481,21.5386839 148.181918,21.5386839 L153.798569,21.5386839 C154.055654,21.5386839 154.261982,21.7529641 154.261982,22.0185365 L154.261982,33.132422 L163.017708,33.132422 C163.017708,33.132422 163.01606,22.0198863 163.01606,22.0185365 C163.01606,21.7529641 163.224695,21.5386839 163.481121,21.5386839 L169.098102,21.5386839 C169.355846,21.5386839 169.561514,21.7529641 169.561514,22.0185365 Z M128.749247,25.9677031 C128.749247,28.036266 127.127963,29.7140628 125.127313,29.7140628 C123.128641,29.7140628 121.505708,28.036266 121.505708,25.9677031 C121.505708,23.8967781 123.128641,22.2233681 125.127313,22.2233681 C127.127963,22.2233681 128.749247,23.8967781 128.749247,25.9677031 Z M128.347799,45.763816 C128.347799,46.5747061 128.347799,50.7536756 128.347799,51.8203521 C128.347799,52.3103282 128.212005,52.5887237 127.658283,52.5887237 C125.003714,52.5887237 122.613482,52.5887237 122.613482,52.5887237 C122.153036,52.5887237 121.797072,52.4145999 121.797072,51.8298007 C121.797072,48.6436065 121.797072,31.9284037 121.797072,31.9284037 C121.797072,31.6645185 122.0268,31.3932094 122.283556,31.3932094 L127.883068,31.3932094 C128.139824,31.3932094 128.347799,31.6088394 128.347799,31.8727246 C128.347799,31.8727246 128.347799,44.9924074 128.347799,45.763816 Z M190.90848,31.438765 C191.165565,31.438765 191.373541,31.654395 191.373541,31.91963 L191.375518,52.1206818 C191.375518,52.3849044 191.166225,52.6008718 190.911117,52.6008718 L187.312255,52.6174068 C187.132295,52.6174068 186.965849,52.4864766 186.902237,52.3568961 C186.838295,52.2269783 186.697228,51.1309436 186.697228,51.1309436 C186.697228,51.1309436 183.732838,53.2106423 180.055862,53.2106423 C175.57434,53.2106423 172.31661,51.7464508 172.31661,45.7617913 C172.31661,39.7774693 172.31661,31.91963 172.31661,31.91963 C172.31661,31.654395 172.525904,31.438765 172.781011,31.438765 L178.438203,31.438765 C178.694299,31.438765 178.901945,31.654395 178.901945,31.91963 C178.901945,31.91963 178.901945,42.7703052 178.901945,44.7875758 C178.901945,46.8021468 179.435232,47.7358684 181.444781,47.7358684 C183.454659,47.7358684 184.870935,46.675266 184.870935,46.675266 L184.870935,31.91963 C184.870935,31.654395 185.079239,31.438765 185.334677,31.438765 L190.90848,31.438765 Z M206.143082,30.7625171 C209.311162,30.7625171 214,31.9746342 214,41.250772 C214,50.5262349 211.064285,53.1846587 205.944995,53.1846587 C201.584765,53.1846587 199.281546,50.9500709 199.281546,50.9500709 C199.281546,50.9500709 199.141467,52.1760234 199.044236,52.3376615 C198.945687,52.500312 198.81253,52.5931105 198.636526,52.5931105 C198.635207,52.5931105 194.728832,52.5931105 194.728172,52.5931105 C194.471417,52.5931105 194.263442,52.3771431 194.263442,52.1115707 L194.263442,22.0185365 C194.263442,21.7529641 194.471417,21.5386839 194.727513,21.5386839 L200.360644,21.5386839 C200.616411,21.5386839 200.824057,21.7529641 200.824057,22.0185365 L200.824057,32.2088238 C200.824057,32.2088238 202.97731,30.7625171 206.143082,30.7625171 Z M203.944675,47.7176462 C206.649342,47.8013335 207.522114,46.7808875 207.522114,41.611505 C207.522114,36.7090448 205.588042,36.0884759 203.5808,36.2723857 C201.993464,36.4174888 200.699799,37.2293913 200.699799,37.2293913 L200.699799,46.7592908 C200.699799,46.7592908 202.011263,47.6575802 203.944675,47.7176462 Z M144.491428,31.3905098 C144.748183,31.3905098 144.956158,31.6044525 144.956158,31.870025 L144.956158,36.505563 C144.956158,36.7718103 144.748183,36.9864279 144.491428,36.9864279 L140.277538,36.9864279 C140.277538,36.9864279 140.277868,44.173081 140.277868,45.4472888 C140.277868,46.7225088 140.978919,47.7078602 143.048784,47.7078602 C143.695452,47.7078602 144.323334,47.6056131 144.569212,47.6056131 C144.81575,47.6056131 145.034932,47.8205681 145.034932,48.0861406 L145.029988,52.1571263 C145.029988,52.3487974 144.933087,52.5259581 144.766311,52.5887237 C144.490439,52.6929954 142.819385,53.1522636 141.422227,53.1522636 C138.36522,53.1522636 133.834589,52.5026742 133.834589,45.8896845 C133.834589,40.8573064 133.834589,36.9864279 133.834589,36.9864279 L130.890635,36.9864279 C130.633879,36.9864279 130.426233,36.7718103 130.426233,36.505563 L130.426233,32.8047589 C130.426233,32.5864294 130.568949,32.403532 130.762422,32.3461656 C130.957213,32.2887993 133.834589,31.5774566 133.834589,31.5774566 L133.834589,25.6882952 C133.834589,25.4686159 133.954233,25.3680561 134.177699,25.3680561 L139.919267,25.3680561 C140.162839,25.3680561 140.271606,25.4757023 140.271606,25.6916697 C140.271606,25.6926821 140.277868,31.3905098 140.277868,31.3905098 L144.491428,31.3905098 Z" id="Combined-Shape" fill="#11110F"></path>
                </g>
            </g>
        </g>
    </g>
</svg>