<?xml version="1.0" encoding="UTF-8"?>
<svg width="201px" height="72px" viewBox="0 0 201 72" version="1.1" xmlns="http://www.w3.org/2000/svg" xmlns:xlink="http://www.w3.org/1999/xlink">
    <title>GNOME</title>
    <g id="Page-1" stroke="none" stroke-width="1" fill="none" fill-rule="evenodd">
        <g id="OSSN_Screen03_Affiliations" transform="translate(-982.000000, -1227.000000)" fill="#000000">
            <g id="Logos/Logo_Gnome" transform="translate(982.000000, 1227.000000)">
                <g id="Logo_Gnome">
                    <g id="g15043" fill-rule="nonzero">
                        <g id="g15045">
                            <path d="M53.4534861,0 C38.3496286,0 35.5163507,21.3318278 44.0131147,21.3318278 C52.5086508,21.3318278 68.5579575,0 53.4534861,0 Z" id="path15047"></path>
                            <path d="M28.373912,18.6885586 C32.8979476,18.962504 37.8615558,1.56879428 29.3586525,2.66274977 C20.8588189,3.75670527 23.8480345,18.4146131 28.373912,18.6885586 Z" id="path15049"></path>
                            <path d="M7.64033439,29.4966197 C10.8579312,28.0921927 8.05473581,14.3553503 2.58340917,18.1017065 C-2.88546176,21.8486715 4.42273756,30.900438 7.64033439,29.4966197 Z" id="path15051"></path>
                            <path d="M16.7062097,22.3064648 C20.5365067,21.5321123 20.7464701,5.95253024 13.9159068,8.74738259 C7.08411559,11.5428437 12.8789823,23.0820348 16.7062097,22.3064648 Z" id="path15053"></path>
                            <path d="M36.7073711,57.1711978 C37.3869894,62.3177197 32.8997894,64.8593247 28.5052926,61.5415409 C14.5157144,50.9800306 51.6681834,45.7111465 49.2192244,31.2821353 C47.1865087,19.3052402 10.1267429,22.992546 5.90660162,41.7328498 C3.04999447,54.4080014 17.6651653,71.9928642 32.9151376,71.9928642 C40.4173382,71.9928642 49.0706539,65.2757217 50.6895821,56.7663673 C51.9260331,50.2775128 36.1401016,52.8775595 36.7073711,57.1711978 Z" id="path15055"></path>
                        </g>
                    </g>
                    <g id="g15057" transform="translate(63.894040, 25.333333)" fill-rule="nonzero">
                        <path d="M67.1650886,0.0140734393 C63.3546086,0.115566088 60.3454296,1.46991552 58.1324567,4.06729425 C55.8407662,6.77033108 54.6880984,10.5051558 54.6880984,15.2682265 C54.6880984,20.0181523 55.8408166,23.7427505 58.1324567,26.4457374 C60.4353458,29.1487743 63.5971427,30.4989582 67.6301055,30.4989582 C71.6741911,30.4989582 74.8439329,29.1487743 77.1356235,26.4457374 C79.4272636,23.7427505 80.5721378,20.0181523 80.5721126,15.2682265 C80.5720874,10.5051558 79.4272636,6.77033108 77.1356235,4.06729425 C74.8439329,1.36433224 71.6741658,0.0140983822 67.6301055,0.0140734393 C67.4725692,0.0140734393 67.3199765,0.00995786128 67.1650886,0.0140734393 Z M67.4488354,5.50151084 C67.5097464,5.49983967 67.5683117,5.50151084 67.6301055,5.50151084 C69.6184265,5.50153578 71.1591339,6.35241284 72.2488729,8.05815781 C73.3385363,9.76395267 73.8882737,12.1715658 73.8882989,15.2682265 C73.8882989,18.3517423 73.3384859,20.7413716 72.2488729,22.4470917 C71.1591843,24.1529115 69.6184013,25.0115208 67.6301055,25.0115208 C65.6529325,25.0115208 64.1246848,24.1529115 63.0349962,22.4470917 C61.9453076,20.7413716 61.3955954,18.3517423 61.3955702,15.2682265 C61.3955702,12.1715908 61.945358,9.76395267 63.0349962,8.05815781 C64.0905847,6.40571581 65.5602923,5.55319252 67.4488354,5.50151084 Z" id="path15059"></path>
                        <path d="M24.1195631,27.7435663 C20.7631284,30.5311096 15.7694116,30.499058 13.6890557,30.499058 C9.49885942,30.499058 6.17929923,29.1344321 3.73037512,26.4051803 C1.28140058,23.6628085 0.0569511368,19.9494845 0.0569511368,15.2651336 C0.0569511368,10.5283278 1.30387332,6.80188385 3.79776814,4.08572705 C6.29166296,1.36964508 9.70668819,0.0115791496 14.0429195,0.0115542067 C15.716723,0.0115791496 17.317509,0.195283588 18.8453279,0.562642579 C20.3843453,0.930051456 21.833497,1.47460479 23.192783,2.19625269 L21.4471726,7.29976902 C20.6829983,6.88606612 19.8080745,6.47834953 18.9969874,6.19170575 C17.6152287,5.73248207 16.2278708,5.50285776 14.8349136,5.50283281 C12.2511278,5.50285776 10.2571318,6.3491952 8.8529508,8.04182021 C7.45994315,9.72137514 6.76346454,12.129138 6.76346454,15.2651336 C6.76346454,18.3749143 7.4374704,20.776142 8.78555778,22.468792 C10.1335695,24.1614419 12.159446,25.0077545 14.5315693,25.0077545 C16.9414751,25.0077545 18.4341094,24.4070297 19.2301894,23.7740538 L19.2301894,18.6898183 L14.009223,18.6898183 L14.009223,13.6118435 L24.1195631,13.6118435" id="path15061"></path>
                        <polyline id="path15063" points="28.5539582 0.542962633 32.6469491 0.542962633 45.5801285 18.2030826 45.5801285 0.542962633 51.1000254 0.542962633 51.1000254 29.9282647 47.0070345 29.9282647 34.0738803 12.2681447 34.0738803 29.9282647 28.5539582 29.9282647 28.5539582 0.542962633"></polyline>
                        <polyline id="path15065" points="84.8304838 0.542962633 93.0872888 0.542962633 98.8164773 18.8879398 104.579362 0.542962633 111.558222 0.542962633 114.710965 29.9282647 108.577342 29.9282647 106.685697 11.5533312 100.889115 30.016388 96.7775611 30.016388 90.9809543 10.9297587 89.0893089 29.9282647 82.9388384 29.9282647 86.0915807 0.542962633"></polyline>
                        <polyline id="path15067" points="119.138272 0.542962633 136.646005 0.542962633 136.646005 6.27045048 125.625708 6.27045048 125.625708 12.3656216 134.097177 12.3656216 134.097177 17.469512 125.625708 17.469512 125.625708 24.2008018 137.016717 24.2008018 137.016717 29.9282647 119.138272 29.9282647 119.138272 0.542962633"></polyline>
                    </g>
                </g>
            </g>
        </g>
    </g>
</svg>